<?xml version="1.0" encoding="UTF-8"?> <svg xmlns="http://www.w3.org/2000/svg" xmlns:xlink="http://www.w3.org/1999/xlink" id="Layer_1" data-name="Layer 1" viewBox="0 0 560 560"> <defs> <style> .cls-1 { fill: none; } .cls-12, .cls-2 { fill: #1566f3; } .cls-2 { opacity: 0.1; } .cls-3 { fill: #fff; } .cls-4 { fill: #355eca; } .cls-5 { fill: #a7c5ef; } .cls-6 { fill: #508df3; } .cls-16, .cls-7 { fill: #272625; } .cls-7 { opacity: 0.08; } .cls-8 { fill: #83a3d9; } .cls-9 { fill: #135cd9; } .cls-10 { fill: #6197f3; } .cls-11 { fill: #92b6f3; } .cls-13 { fill: #5687d9; } .cls-14 { fill: #2763cc; } .cls-15 { fill: url(#linear-gradient); } .cls-17 { fill: #ebebeb; } .cls-18 { fill: url(#linear-gradient-2); } .cls-19 { fill: url(#linear-gradient-3); } .cls-20 { fill: url(#linear-gradient-4); } .cls-21 { fill: #3b3b44; } .cls-22 { fill: #5d626e; } .cls-23 { fill: #fafafa; } .cls-24 { fill: #61acf3; } .cls-25 { fill: #ccdef2; } .cls-26 { fill: #b6c7d8; } .cls-27 { fill: #e8a476; } .cls-28 { fill: url(#linear-gradient-5); } .cls-29 { fill: url(#linear-gradient-6); } .cls-30 { fill: #d7eaff; } .cls-31 { fill: #feffff; } .cls-32 { fill: #efb185; } .cls-33 { fill: #dd9569; } .cls-34 { fill: #f2b78f; } .cls-35 { fill: #e6a376; } .cls-36 { fill: #341c09; } .cls-37 { fill: #221101; } .cls-38 { fill: url(#linear-gradient-7); } .cls-39 { fill: #ac9ca8; } .cls-40 { fill: #dfdfdf; } .cls-41 { fill: url(#linear-gradient-8); } .cls-42 { fill: #efc3b1; } .cls-43 { fill: url(#linear-gradient-9); } .cls-44 { fill: url(#linear-gradient-10); } .cls-45 { fill: #4c260c; } .cls-46 { isolation: isolate; } .cls-47 { opacity: 0.2; } </style> <linearGradient id="linear-gradient" x1="302.93" y1="323.06" x2="404.19" y2="147.67" gradientUnits="userSpaceOnUse"> <stop offset="0" stop-color="#e6e6e6"></stop> <stop offset="0.14" stop-color="#e4e4e4"></stop> <stop offset="1" stop-color="#d8d8d8"></stop> </linearGradient> <linearGradient id="linear-gradient-2" x1="55" y1="400.03" x2="469.26" y2="400.03" gradientUnits="userSpaceOnUse"> <stop offset="0" stop-color="#d6d6d6"></stop> <stop offset="0.26" stop-color="#dcdcdc"></stop> <stop offset="0.5" stop-color="#e6e6e6"></stop> <stop offset="0.55" stop-color="#e4e4e4"></stop> <stop offset="0.85" stop-color="#d8d8d8"></stop> <stop offset="0.87" stop-color="#d2d2d2"></stop> <stop offset="0.94" stop-color="#c4c3c3"></stop> <stop offset="1" stop-color="#bfbebe"></stop> </linearGradient> <linearGradient id="linear-gradient-3" x1="119.75" y1="375" x2="457.63" y2="375" gradientUnits="userSpaceOnUse"> <stop offset="0" stop-color="#d6d6d6"></stop> <stop offset="0.26" stop-color="#dcdcdc"></stop> <stop offset="0.5" stop-color="#e6e6e6"></stop> <stop offset="0.55" stop-color="#e4e4e4"></stop> <stop offset="0.85" stop-color="#d8d8d8"></stop> </linearGradient> <linearGradient id="linear-gradient-4" x1="131.44" y1="421.35" x2="285.42" y2="421.35" xlink:href="#linear-gradient-3"></linearGradient> <linearGradient id="linear-gradient-5" x1="160.56" y1="440.07" x2="210.68" y2="440.07" gradientUnits="userSpaceOnUse"> <stop offset="0" stop-color="#5fa7ed"></stop> <stop offset="1" stop-color="#3d66ee"></stop> </linearGradient> <linearGradient id="linear-gradient-6" x1="171.89" y1="445.44" x2="234.14" y2="445.44" xlink:href="#linear-gradient-5"></linearGradient> <linearGradient id="linear-gradient-7" x1="162.38" y1="419.58" x2="217.14" y2="419.58" gradientUnits="userSpaceOnUse"> <stop offset="0" stop-color="#e6e6e6"></stop> <stop offset="0.52" stop-color="#d0cfcf"></stop> <stop offset="1" stop-color="#bfbebe"></stop> </linearGradient> <linearGradient id="linear-gradient-8" x1="166.19" y1="417.51" x2="215.3" y2="417.51" xlink:href="#linear-gradient-3"></linearGradient> <linearGradient id="linear-gradient-9" x1="163.45" y1="410.48" x2="196.16" y2="410.48" gradientUnits="userSpaceOnUse"> <stop offset="0" stop-color="#d6d6d6"></stop> <stop offset="0.12" stop-color="#dbdbdb"></stop> <stop offset="0.46" stop-color="#e6e6e6"></stop> <stop offset="0.62" stop-color="#e0e0e0"></stop> <stop offset="0.84" stop-color="#cfcfcf"></stop> <stop offset="1" stop-color="#bfbebe"></stop> </linearGradient> <linearGradient id="linear-gradient-10" x1="162.29" y1="411.16" x2="195" y2="411.16" gradientUnits="userSpaceOnUse"> <stop offset="0.6" stop-color="#e6e6e6"></stop> <stop offset="0.66" stop-color="#e4e4e4"></stop> <stop offset="1" stop-color="#d8d8d8"></stop> </linearGradient> </defs> <title>Artboard 1</title> <rect class="cls-1" width="560" height="560"></rect> <g> <g> <g> <path id="_Path_" data-name="&lt;Path&gt;" class="cls-2" d="M377.4,44.3l3.5-2h0a3.2,3.2,0,0,1,3.2.3l141.4,82.1a9.8,9.8,0,0,1,4.5,7.8V258.7a3.2,3.2,0,0,1-1.3,2.9h0l-3.6,2.1-141-84.5a9.8,9.8,0,0,1-4.5-7.8Z"></path> <path id="_Path_2" data-name="&lt;Path&gt;" class="cls-2" d="M380.5,44.7l141.4,82.1a9.8,9.8,0,0,1,4.5,7.7V260.8c0,2.8-2,4-4.5,2.6L380.5,181.3a9.8,9.8,0,0,1-4.5-7.8V47.3C376,44.4,378,43.2,380.5,44.7Z"></path> </g> <g id="_Group_" data-name="&lt;Group&gt;"> <path id="_Path_3" data-name="&lt;Path&gt;" class="cls-3" d="M489.8,145.5v61.6c0,1.1-.8,1.6-1.8,1l-73.7-42.5a4,4,0,0,1-1.7-3V100.9c0-1.1.8-1.5,1.7-1L488,142.5A3.7,3.7,0,0,1,489.8,145.5Z"></path> <g id="_Group_2" data-name="&lt;Group&gt;"> <g id="_Group_3" data-name="&lt;Group&gt;"> <polygon id="_Path_4" data-name="&lt;Path&gt;" class="cls-4" points="481.7 195.1 481.7 148.2 478.9 146.6 478.9 193.5 481.7 195.1"></polygon> <polygon id="_Path_5" data-name="&lt;Path&gt;" class="cls-5" points="482.3 198.7 478.2 196.3 478.2 197.8 482.3 200.1 482.3 198.7"></polygon> </g> <g id="_Group_4" data-name="&lt;Group&gt;"> <polygon id="_Path_6" data-name="&lt;Path&gt;" class="cls-6" points="476.3 192 476.3 154.5 473.5 152.9 473.5 190.4 476.3 192"></polygon> <polygon id="_Path_7" data-name="&lt;Path&gt;" class="cls-5" points="477 195.6 472.9 193.3 472.9 194.7 477 197.1 477 195.6"></polygon> </g> </g> <g id="_Group_5" data-name="&lt;Group&gt;"> <g id="_Group_6" data-name="&lt;Group&gt;"> <polygon id="_Path_8" data-name="&lt;Path&gt;" class="cls-4" points="468.2 187.3 468.2 146.5 465.4 144.9 465.4 185.7 468.2 187.3"></polygon> <polygon id="_Path_9" data-name="&lt;Path&gt;" class="cls-5" points="468.8 190.9 464.8 188.6 464.8 190 468.8 192.3 468.8 190.9"></polygon> </g> <g id="_Group_7" data-name="&lt;Group&gt;"> <polygon id="_Path_10" data-name="&lt;Path&gt;" class="cls-6" points="462.9 184.2 462.9 150.5 460.1 148.9 460.1 182.6 462.9 184.2"></polygon> <polygon id="_Path_11" data-name="&lt;Path&gt;" class="cls-5" points="463.5 187.8 459.4 185.5 459.4 186.9 463.5 189.3 463.5 187.8"></polygon> </g> </g> <g id="_Group_8" data-name="&lt;Group&gt;"> <g id="_Group_9" data-name="&lt;Group&gt;"> <polygon id="_Path_12" data-name="&lt;Path&gt;" class="cls-4" points="454.8 179.5 454.8 160.7 452 159.1 452 177.9 454.8 179.5"></polygon> <polygon id="_Path_13" data-name="&lt;Path&gt;" class="cls-5" points="455.4 183.2 451.3 180.8 451.3 182.3 455.4 184.6 455.4 183.2"></polygon> </g> <g id="_Group_10" data-name="&lt;Group&gt;"> <polygon id="_Path_14" data-name="&lt;Path&gt;" class="cls-6" points="449.4 176.5 449.4 155.1 446.6 153.5 446.6 174.9 449.4 176.5"></polygon> <polygon id="_Path_15" data-name="&lt;Path&gt;" class="cls-5" points="450.1 180.1 446 177.7 446 179.2 450.1 181.5 450.1 180.1"></polygon> </g> </g> <g id="_Group_11" data-name="&lt;Group&gt;"> <g id="_Group_12" data-name="&lt;Group&gt;"> <polygon id="_Path_16" data-name="&lt;Path&gt;" class="cls-4" points="441.3 171.8 441.3 146.1 438.5 144.4 438.5 170.2 441.3 171.8"></polygon> <polygon id="_Path_17" data-name="&lt;Path&gt;" class="cls-5" points="441.9 175.4 437.8 173 437.8 174.5 441.9 176.8 441.9 175.4"></polygon> </g> <g id="_Group_13" data-name="&lt;Group&gt;"> <polygon id="_Path_18" data-name="&lt;Path&gt;" class="cls-6" points="436 168.7 436 152 433.2 150.3 433.2 167.1 436 168.7"></polygon> <polygon id="_Path_19" data-name="&lt;Path&gt;" class="cls-5" points="436.6 172.3 432.5 170 432.5 171.4 436.6 173.7 436.6 172.3"></polygon> </g> </g> <g id="_Group_14" data-name="&lt;Group&gt;"> <g id="_Group_15" data-name="&lt;Group&gt;"> <polygon id="_Path_20" data-name="&lt;Path&gt;" class="cls-4" points="427.8 164 427.9 156.7 425.1 155.1 425.1 162.4 427.8 164"></polygon> <polygon id="_Path_21" data-name="&lt;Path&gt;" class="cls-5" points="428.4 167.6 424.4 165.3 424.4 166.7 428.4 169 428.4 167.6"></polygon> </g> <g id="_Group_16" data-name="&lt;Group&gt;"> <polygon id="_Path_22" data-name="&lt;Path&gt;" class="cls-6" points="422.5 160.9 422.5 157.3 419.7 155.7 419.7 159.3 422.5 160.9"></polygon> <polygon id="_Path_23" data-name="&lt;Path&gt;" class="cls-5" points="423.1 164.5 419.1 162.2 419.1 163.6 423.1 166 423.1 164.5"></polygon> </g> </g> <g id="_Group_17" data-name="&lt;Group&gt;"> <g id="_Group_18" data-name="&lt;Group&gt;"> <polygon id="_Path_24" data-name="&lt;Path&gt;" class="cls-5" points="420.7 111.9 444.1 125.3 444.1 127.9 420.7 114.4 420.7 111.9"></polygon> </g> <g id="_Group_19" data-name="&lt;Group&gt;"> <polygon id="_Path_25" data-name="&lt;Path&gt;" class="cls-4" points="416.7 109 419.7 110.7 419.7 114.3 416.7 112.5 416.7 109"></polygon> <polygon id="_Path_26" data-name="&lt;Path&gt;" class="cls-6" points="416.7 114.8 419.7 116.6 419.7 120.1 416.7 118.4 416.7 114.8"></polygon> <polygon id="_Path_27" data-name="&lt;Path&gt;" class="cls-5" points="420.7 117.7 444.1 131.2 444.1 133.7 420.7 120.2 420.7 117.7"></polygon> </g> </g> </g> </g> <path class="cls-7" d="M472.5,475.1a52.2,52.2,0,0,0-20.7,4.5c-8.1,3.8-12.4,9.1-12.8,14.5s1.9,8.7,7.1,12.3a36.1,36.1,0,0,0,11.6,5.1c11.2,2.8,25,1.9,35.5-2.9,8-3.8,12.4-9.1,12.8-14.5s-2-8.8-7.1-12.3-16.5-6.9-26.4-6.7"></path> <path class="cls-7" d="M107.3,246.8c-14.5.3-29.1,3.2-41.5,9-16.1,7.5-24.8,18.2-25.6,29-.7,8.7,3.9,17.5,14.2,24.7,6.4,4.5,14.5,7.9,23.3,10.1,22.4,5.7,50.1,4,71-5.8,16.2-7.5,24.9-18.2,25.7-29,.6-8.8-3.9-17.5-14.2-24.7-13.2-9.3-33-13.8-52.9-13.3"></path> <g> <g> <path class="cls-8" d="M30.1,239.4v46.5c.7,10.8,9.5,21.5,25.7,29,20.9,9.8,48.6,11.5,71,5.9V239.4Z"></path> <path class="cls-9" d="M164.4,285.9V255.7l-37.6-16.3v81.4a73.4,73.4,0,0,0,23.4-10.2C160.5,303.4,165,294.6,164.4,285.9Z"></path> </g> <path class="cls-10" d="M44.3,214.7c-10.3,7.2-14.9,16-14.2,24.7H97.2v-38C77.3,200.9,57.5,205.4,44.3,214.7Z"></path> <g> <path class="cls-11" d="M30.1,262.2c.7,10.8,9.5,21.5,25.7,29.1,20.9,9.7,48.6,11.5,71,5.8L97.2,262.2Z"></path> <path class="cls-12" d="M164.4,251.2c-.8-10.8-9.5-21.5-25.7-29-12.3-5.8-27-8.7-41.5-9.1v38.1L126.8,286a71.2,71.2,0,0,0,23.4-10.1C160.5,268.7,165,259.9,164.4,251.2Z"></path> </g> <rect class="cls-13" x="30.1" y="239.4" width="67.1" height="22.8"></rect> <polygon class="cls-14" points="126.8 286 97.2 251.2 97.2 262.2 126.8 297.1 126.8 286"></polygon> </g> <path class="cls-7" d="M59.9,408.6,210,321.9c4.7-2.7,12.3-2.7,17,0L465.8,460.7c4.6,2.7,4.6,7.1-.1,9.8L315.5,557.2c-6.4,3.7-16.8,3.7-23.2,0L59.8,422.1c-6.4-3.7-6.4-9.8.1-13.5Z"></path> <g> <g> <path class="cls-15" d="M225.2,265.4l-.3-206.2c0-5.7,5.8-11,13.1-7.5L475.4,188.8c5.9,3.2,6.9,8.7,6.9,16.2V411.4c0,4.6-3.8,8.3-6.9,8.3h-5.2l1.6-.7L230.2,279.4C226,277,223.8,270.7,225.2,265.4Z"></path> <path class="cls-16" d="M221.3,265.2V61.1c0-6.3,4.7-11.3,13.3-7L472.1,191.2c5.6,3.6,6.6,8.4,6.6,18.5,0,0,.1,197.6,0,202.1s-6,9.7-10.1,7.3L339.8,344.7,226.3,279.2a9.7,9.7,0,0,1-3.8-4.2C221,272.1,221.3,265.2,221.3,265.2Z"></path> <polygon class="cls-17" points="229.4 63.4 469.3 201.8 469.3 397.4 229.4 258.9 229.4 63.4"></polygon> </g> <g> <g> <path class="cls-18" d="M55,375.5h0v-9.1l7.4.9L210,282c4.7-2.7,12.3-2.7,17,0L453.7,413.8l15.6,2v9.6h-.1c.1,1.9-1,3.8-3.5,5.2L315.5,517.3c-6.4,3.7-16.8,3.7-23.2,0L59.8,382.2c-3.1-1.8-4.7-4.2-4.8-6.5h0Z"></path> <path class="cls-17" d="M59.9,359,210,272.3c4.7-2.7,12.3-2.7,17,0L465.8,411.1c4.6,2.7,4.6,7.1-.1,9.8L315.5,507.6c-6.4,3.7-16.8,3.7-23.2,0L59.8,372.5c-6.4-3.7-6.4-9.8.1-13.5Z"></path> <path class="cls-19" d="M122.1,329.5l88.6-51.1a12.3,12.3,0,0,1,11.2,0L455.3,414c3.1,1.8,3.1,4.7,0,6.5l-88.6,51.2a12.9,12.9,0,0,1-11.2,0L122.1,336C119,334.2,119,331.3,122.1,329.5Z"></path> <path class="cls-20" d="M133.4,403.2l44-25.4a10.2,10.2,0,0,1,9.3,0L283.5,434c2.6,1.5,2.6,4,0,5.4l-44.1,25.5a10.2,10.2,0,0,1-9.3,0l-96.7-56.3c-2.6-1.4-2.6-3.9,0-5.4Z"></path> </g> <g> <path class="cls-21" d="M415.7,422.4v-1.2h1l10.6-6.2a4.4,4.4,0,0,1,3.9,0l10.7,6.2h.9v1.2h0a1.4,1.4,0,0,1-.8,1.1l-10.8,6.2a4.1,4.1,0,0,1-4,0l-10.7-6.2C415.9,423.3,415.6,422.9,415.7,422.4Z"></path> <path class="cls-21" d="M347.3,461.9v-1.2h1l10.6-6.2a4.4,4.4,0,0,1,3.9,0l10.7,6.2h.9v1.2h0a1.4,1.4,0,0,1-.8,1.1l-10.8,6.2a4.7,4.7,0,0,1-4,0l-10.7-6.2A1.4,1.4,0,0,1,347.3,461.9Z"></path> <path class="cls-21" d="M330.4,452.1v-1.2h1l10.6-6.2a4.7,4.7,0,0,1,4,0l10.6,6.2h.9v1.2h0a1.4,1.4,0,0,1-.8,1.1l-10.8,6.2a4.4,4.4,0,0,1-3.9,0l-10.8-6.2A1.7,1.7,0,0,1,330.4,452.1Z"></path> <path class="cls-21" d="M313.5,442.3V441h1.1l10.6-6.1a4.4,4.4,0,0,1,3.9,0l10.6,6.2h1v1.2h0a1.3,1.3,0,0,1-.8,1L329,449.7a4.4,4.4,0,0,1-3.9,0l-10.8-6.3A1.4,1.4,0,0,1,313.5,442.3Z"></path> <path class="cls-21" d="M296.6,432.5v-1.3h1.1l10.6-6.1a4.5,4.5,0,0,1,3.9,0l10.7,6.2h.9v1.2h0c0,.4-.3.7-.8,1l-10.9,6.3a4.4,4.4,0,0,1-3.9,0l-10.8-6.3A1.4,1.4,0,0,1,296.6,432.5Z"></path> <path class="cls-21" d="M398.8,412.6v-1.2h1l10.6-6.2a4.7,4.7,0,0,1,4,0l10.6,6.2h.9v1.2h0a1.4,1.4,0,0,1-.8,1.1L414.3,420a3.9,3.9,0,0,1-3.9,0l-10.8-6.2A1.3,1.3,0,0,1,398.8,412.6Z"></path> <path class="cls-21" d="M372.3,416.9v-1.3h1l10.6-6.1a4.4,4.4,0,0,1,3.9,0l10.7,6.2h.9v1.2h0c0,.4-.3.7-.8,1l-10.8,6.3a4.7,4.7,0,0,1-4,0L373.1,418A1.2,1.2,0,0,1,372.3,416.9Z"></path> <path class="cls-21" d="M355.4,407.1v-1.3h1l10.6-6.1a4.7,4.7,0,0,1,4,0l10.6,6.2h.9v1.2h0c0,.4-.3.7-.8,1l-10.8,6.3a4.4,4.4,0,0,1-3.9,0l-10.8-6.3A1.2,1.2,0,0,1,355.4,407.1Z"></path> <path class="cls-21" d="M346.6,421.9v-1.2h1.1l10.6-6.2a4.5,4.5,0,0,1,3.9,0l10.6,6.2h1v1.2h0a1.7,1.7,0,0,1-.8,1.1l-10.9,6.2a3.9,3.9,0,0,1-3.9,0l-10.8-6.2A1.5,1.5,0,0,1,346.6,421.9Z"></path> <path class="cls-21" d="M329.4,431.9v-1.3h1l10.7-6.1a3.9,3.9,0,0,1,3.9,0l10.6,6.2h1v1.2h-.1a1.4,1.4,0,0,1-.8,1.1l-10.8,6.3a4.4,4.4,0,0,1-3.9,0L330.2,433A1.4,1.4,0,0,1,329.4,431.9Z"></path> <path class="cls-21" d="M312.5,422.1v-1.3h1.1l10.6-6.1a3.9,3.9,0,0,1,3.9,0l10.7,6.2h.9v1.2h0a1.7,1.7,0,0,1-.8,1.1L328,429.5a4.5,4.5,0,0,1-3.9,0l-10.8-6.3A1.4,1.4,0,0,1,312.5,422.1Z"></path> <path class="cls-21" d="M295.7,412.3V411h1l10.6-6.1a3.9,3.9,0,0,1,3.9,0l10.7,6.2h.9v1.2h0a1.4,1.4,0,0,1-.8,1.1l-10.8,6.2a4.3,4.3,0,0,1-4,.1l-10.7-6.3A1.2,1.2,0,0,1,295.7,412.3Z"></path> <path class="cls-21" d="M278.8,402.4v-1.2h1l10.6-6.1a4.1,4.1,0,0,1,4,0l10.6,6.1h.9v1.2h0a1.4,1.4,0,0,1-.8,1.1l-10.8,6.2a3.9,3.9,0,0,1-3.9,0l-10.8-6.2A1.2,1.2,0,0,1,278.8,402.4Z"></path> <path class="cls-21" d="M261.9,392.6v-1.2h1l10.7-6.2a4.5,4.5,0,0,1,3.9,0l10.6,6.2h1v1.2H289a1.2,1.2,0,0,1-.8,1.1L277.4,400a3.9,3.9,0,0,1-3.9,0l-10.8-6.2A1.4,1.4,0,0,1,261.9,392.6Z"></path> <path class="cls-21" d="M245,382.8v-1.2h1.1l10.6-6.2a4.4,4.4,0,0,1,3.9,0l10.7,6.2h.9v1.2h0a1.7,1.7,0,0,1-.8,1.1l-10.9,6.2a3.9,3.9,0,0,1-3.9,0L245.8,384A1.5,1.5,0,0,1,245,382.8Z"></path> <path class="cls-21" d="M228.2,373v-1.2h1l10.6-6.2a4.4,4.4,0,0,1,3.9,0l10.7,6.2h.9V373h0a1.4,1.4,0,0,1-.8,1.1l-10.8,6.2a4.1,4.1,0,0,1-4,0L229,374.2A1.3,1.3,0,0,1,228.2,373Z"></path> <path class="cls-21" d="M211.3,363.2V362h1l10.6-6.2a4.7,4.7,0,0,1,4,0l10.6,6.2h.9v1.2h0a1.4,1.4,0,0,1-.8,1.1l-10.8,6.2a4.4,4.4,0,0,1-3.9,0l-10.8-6.2A1.4,1.4,0,0,1,211.3,363.2Z"></path> <path class="cls-21" d="M194.4,353.4v-1.2h1l10.7-6.2a4.5,4.5,0,0,1,3.9,0l10.6,6.2h1v1.2h0a1.6,1.6,0,0,1-.9,1.1l-10.8,6.2a4.5,4.5,0,0,1-3.9,0l-10.8-6.2A1.7,1.7,0,0,1,194.4,353.4Z"></path> <path class="cls-21" d="M176.3,362.6v-1.3h1.1l10.6-6.1a4.4,4.4,0,0,1,3.9,0l10.7,6.2h.9v1.2h0a1.5,1.5,0,0,1-.8,1L191.8,370a4.4,4.4,0,0,1-3.9,0l-10.8-6.3A1.4,1.4,0,0,1,176.3,362.6Z"></path> <path class="cls-21" d="M159.5,352.8v-1.3h1l10.6-6.1a4.4,4.4,0,0,1,3.9,0l10.7,6.2h.9v1.2h0a1.4,1.4,0,0,1-.8,1L175,360.2a4.7,4.7,0,0,1-4,0l-10.7-6.3A1.2,1.2,0,0,1,159.5,352.8Z"></path> <path class="cls-21" d="M125.3,332.9v-1.2h1l10.7-6.2a4.4,4.4,0,0,1,3.9,0l10.6,6.2h1v1.2h-.1a1.4,1.4,0,0,1-.8,1.1l-10.8,6.2a3.9,3.9,0,0,1-3.9,0l-10.8-6.2A1.5,1.5,0,0,1,125.3,332.9Z"></path> <path class="cls-21" d="M143.3,321.9l10.6-6.2a4.7,4.7,0,0,1,4,0l1.5.9h0l9.1,5.3h.9v.6l.6.3h.9V324h0c0,.4-.3.7-.8,1l-10.8,6.3a4.4,4.4,0,0,1-3.9,0l-12.3-7.1a1.4,1.4,0,0,1-.8-1.2v-1.2Z"></path> <path class="cls-21" d="M177.5,343.6v-1.3h1.1l10.6-6.1a4.4,4.4,0,0,1,3.9,0l10.7,6.2h.9v1.2h0a1.3,1.3,0,0,1-.8,1L193,351a4.4,4.4,0,0,1-3.9,0l-10.8-6.3A1.4,1.4,0,0,1,177.5,343.6Z"></path> <path class="cls-21" d="M160.7,333.8v-1.3h1l10.6-6.1a4.4,4.4,0,0,1,3.9,0l10.7,6.2h.9v1.2h0c0,.4-.3.7-.8,1l-10.8,6.3a4.7,4.7,0,0,1-4,0l-10.7-6.3A1.2,1.2,0,0,1,160.7,333.8Z"></path> <path class="cls-21" d="M329.7,412.1v-1.2h1.1l10.6-6.2a4.4,4.4,0,0,1,3.9,0l10.7,6.2h.9v1.2h0a1.4,1.4,0,0,1-.8,1.1l-10.9,6.2a4.4,4.4,0,0,1-3.9,0l-10.8-6.2A1.7,1.7,0,0,1,329.7,412.1Z"></path> <path class="cls-21" d="M312.9,402.3v-1.2h1l10.6-6.2a4.4,4.4,0,0,1,3.9,0l10.7,6.2h.9v1.2h0a1.4,1.4,0,0,1-.8,1.1l-10.8,6.2a4.7,4.7,0,0,1-4,0l-10.7-6.2A1.4,1.4,0,0,1,312.9,402.3Z"></path> <path class="cls-21" d="M296,392.5v-1.3h1l10.7-6.1a4.4,4.4,0,0,1,3.9,0l10.6,6.2h.9v1.2h0a1.1,1.1,0,0,1-.8,1l-10.8,6.3a4.4,4.4,0,0,1-3.9,0l-10.8-6.3A1.4,1.4,0,0,1,296,392.5Z"></path> <path class="cls-21" d="M279.1,382.7v-1.3h1.1l10.6-6.1a4.4,4.4,0,0,1,3.9,0l10.6,6.2h1v1.2h0a1.5,1.5,0,0,1-.8,1l-10.9,6.3a4.5,4.5,0,0,1-3.9,0l-10.8-6.3A1.4,1.4,0,0,1,279.1,382.7Z"></path> <path class="cls-21" d="M262.2,372.9v-1.3h1.1l10.6-6.1a4.5,4.5,0,0,1,3.9,0l10.7,6.2h.9v1.2h0c0,.4-.3.7-.8,1l-10.9,6.3a4.4,4.4,0,0,1-3.9,0L263,374A1.4,1.4,0,0,1,262.2,372.9Z"></path> <path class="cls-21" d="M245.4,363.1v-1.3h1l10.6-6.1a4.4,4.4,0,0,1,3.9,0l10.7,6.2h.9v1.2h0c0,.4-.3.7-.8,1l-10.8,6.3a4.7,4.7,0,0,1-4,0l-10.7-6.3A1.2,1.2,0,0,1,245.4,363.1Z"></path> <path class="cls-21" d="M228.5,353.3V352h1l10.7-6.1a4.4,4.4,0,0,1,3.9,0l10.6,6.2h1v1.2h-.1a1.4,1.4,0,0,1-.8,1L244,360.7a4.4,4.4,0,0,1-3.9,0l-10.8-6.3A1.4,1.4,0,0,1,228.5,353.3Z"></path> <path class="cls-21" d="M211.6,343.5v-1.3h1.1l10.6-6.1a4.5,4.5,0,0,1,3.9,0l10.7,6.2h.9v1.2h0a1.8,1.8,0,0,1-.8,1l-10.9,6.3a4.5,4.5,0,0,1-3.9,0l-10.8-6.3A1.4,1.4,0,0,1,211.6,343.5Z"></path> <path class="cls-21" d="M194.8,333.7v-1.3h1l10.6-6.1a4.4,4.4,0,0,1,3.9,0l10.7,6.2h.9v1.2h0a1.4,1.4,0,0,1-.8,1l-10.8,6.3a4.7,4.7,0,0,1-4,0l-10.7-6.3C195,334.5,194.7,334.1,194.8,333.7Z"></path> <path class="cls-21" d="M338.5,397.3V396h1l10.7-6.1a4.5,4.5,0,0,1,3.9,0l10.6,6.2h1v1.2h0a1.6,1.6,0,0,1-.9,1L354,404.7a4.5,4.5,0,0,1-3.9,0l-10.8-6.3A1.4,1.4,0,0,1,338.5,397.3Z"></path> <path class="cls-21" d="M321.6,387.5v-1.3h1.1l10.6-6.1a4.5,4.5,0,0,1,3.9,0l10.7,6.2h.9v1.2h0a1.8,1.8,0,0,1-.8,1l-10.9,6.3a4.4,4.4,0,0,1-3.9,0l-10.8-6.3A1.4,1.4,0,0,1,321.6,387.5Z"></path> <path class="cls-21" d="M304.8,377.7v-1.3h1l10.6-6.1a4.4,4.4,0,0,1,3.9,0l10.7,6.2h.9v1.2h0a1.4,1.4,0,0,1-.8,1l-10.8,6.3a4.7,4.7,0,0,1-4,0l-10.7-6.3A1.2,1.2,0,0,1,304.8,377.7Z"></path> <path class="cls-21" d="M287.9,367.9v-1.3h1l10.6-6.1a4.1,4.1,0,0,1,4,0l10.6,6.2h.9v1.2h0a1.4,1.4,0,0,1-.8,1.1l-10.8,6.3a4.4,4.4,0,0,1-3.9,0L288.7,369A1.4,1.4,0,0,1,287.9,367.9Z"></path> <path class="cls-21" d="M271,358.1v-1.3h1.1l10.6-6.1a3.9,3.9,0,0,1,3.9,0l10.6,6.2h1v1.2h0a1.6,1.6,0,0,1-.9,1.1l-10.8,6.3a4.5,4.5,0,0,1-3.9,0l-10.8-6.3A1.4,1.4,0,0,1,271,358.1Z"></path> <path class="cls-21" d="M254.1,348.3V347h1.1l10.6-6.1a3.9,3.9,0,0,1,3.9,0l10.7,6.2h.9v1.2h0a1.7,1.7,0,0,1-.8,1.1l-10.9,6.2a4.1,4.1,0,0,1-3.9.1l-10.8-6.3A1.4,1.4,0,0,1,254.1,348.3Z"></path> <path class="cls-21" d="M237.3,338.4v-1.2h1l10.6-6.1a3.9,3.9,0,0,1,3.9,0l10.7,6.1h.9v1.2h0a1.4,1.4,0,0,1-.8,1.1l-10.8,6.2a4.1,4.1,0,0,1-4,0l-10.7-6.2A1.2,1.2,0,0,1,237.3,338.4Z"></path> <path class="cls-21" d="M220.4,328.6v-1.2h1l10.6-6.1a4.1,4.1,0,0,1,4,0l10.6,6.1h.9v1.2h0a1.4,1.4,0,0,1-.8,1.1L235.9,336a3.9,3.9,0,0,1-3.9,0l-10.8-6.2A1.4,1.4,0,0,1,220.4,328.6Z"></path> <path class="cls-21" d="M203.5,318.8v-1.2h1.1l10.6-6.2a4.5,4.5,0,0,1,3.9,0l10.6,6.2h1v1.2h0a1.7,1.7,0,0,1-.8,1.1L219,326.2a3.9,3.9,0,0,1-3.9,0L204.3,320A1.5,1.5,0,0,1,203.5,318.8Z"></path> <path class="cls-21" d="M381.9,402.8v-1.2h1l10.7-6.2a4.4,4.4,0,0,1,3.9,0l10.6,6.2h1v1.2H409a1.4,1.4,0,0,1-.8,1.1l-10.8,6.2a4.4,4.4,0,0,1-3.9,0L382.7,404A1.5,1.5,0,0,1,381.9,402.8Z"></path> <path class="cls-21" d="M365,393v-1.2h1.1l10.6-6.2a4.5,4.5,0,0,1,3.9,0l10.7,6.2h.9V393h0a1.7,1.7,0,0,1-.8,1.1l-10.9,6.2a4.5,4.5,0,0,1-3.9,0l-10.8-6.2A1.7,1.7,0,0,1,365,393Z"></path> <path class="cls-21" d="M348.2,383.2V382h1l10.6-6.2a4.4,4.4,0,0,1,3.9,0l10.7,6.2h.9v1.2h0a1.4,1.4,0,0,1-.8,1.1l-10.8,6.2a4.7,4.7,0,0,1-4,0L349,384.4A1.4,1.4,0,0,1,348.2,383.2Z"></path> <path class="cls-21" d="M331.3,373.4v-1.3h1l10.6-6.1a4.7,4.7,0,0,1,4,0l10.6,6.2h.9v1.2h0a1.1,1.1,0,0,1-.8,1l-10.8,6.3a4.4,4.4,0,0,1-3.9,0l-10.8-6.3A1.2,1.2,0,0,1,331.3,373.4Z"></path> <path class="cls-21" d="M314.4,363.6v-1.3h1l10.7-6.1a4.5,4.5,0,0,1,3.9,0l10.6,6.2h1v1.2h-.1c0,.4-.2.7-.8,1L329.9,371a4.4,4.4,0,0,1-3.9,0l-10.8-6.3A1.4,1.4,0,0,1,314.4,363.6Z"></path> <path class="cls-21" d="M297.5,353.8v-1.3h1.1l10.6-6.1a4.4,4.4,0,0,1,3.9,0l10.7,6.2h.9v1.2h0a1.5,1.5,0,0,1-.8,1L313,361.2a4.4,4.4,0,0,1-3.9,0l-10.8-6.3A1.4,1.4,0,0,1,297.5,353.8Z"></path> <path class="cls-21" d="M280.7,344v-1.3h1l10.6-6.1a4.4,4.4,0,0,1,3.9,0l10.7,6.2h.9V344h0c0,.4-.3.7-.8,1l-10.8,6.3a4.7,4.7,0,0,1-4,0l-10.7-6.3A1.2,1.2,0,0,1,280.7,344Z"></path> <path class="cls-21" d="M263.8,334.2v-1.3h1l10.6-6.1a4.7,4.7,0,0,1,4,0L290,333h.9v1.2h0a1.4,1.4,0,0,1-.8,1l-10.8,6.3a4.4,4.4,0,0,1-3.9,0l-10.8-6.3A1.2,1.2,0,0,1,263.8,334.2Z"></path> <path class="cls-21" d="M246.9,324.4v-1.3H248l10.6-6.1a4.4,4.4,0,0,1,3.9,0l10.6,6.2h1v1.2h0a1.6,1.6,0,0,1-.9,1l-10.8,6.3a4.4,4.4,0,0,1-3.9,0l-10.8-6.3A1.4,1.4,0,0,1,246.9,324.4Z"></path> <path class="cls-21" d="M230,314.6v-1.3h1.1l10.6-6.1a4.4,4.4,0,0,1,3.9,0l10.7,6.2h.9v1.2h0a1.7,1.7,0,0,1-.8,1.1L245.5,322a4.4,4.4,0,0,1-3.9,0l-10.8-6.3A1.4,1.4,0,0,1,230,314.6Z"></path> <path class="cls-21" d="M213.2,304.8v-1.3h1l10.6-6.1a3.9,3.9,0,0,1,3.9,0l10.7,6.2h.9v1.2h0a1.4,1.4,0,0,1-.8,1.1l-10.8,6.3a4.7,4.7,0,0,1-4,0L214,305.9A1.2,1.2,0,0,1,213.2,304.8Z"></path> <path class="cls-21" d="M193.7,292.1h1l10.6-6.1a4.1,4.1,0,0,1,4,0l13.1,7.6h1v1.2h0c0,.4-.3.7-.8,1l-10.8,6.3a4.4,4.4,0,0,1-3.9,0l-13.4-7.8a1.3,1.3,0,0,1-.8-1.2h0Z"></path> <path class="cls-21" d="M193.2,372.4v-1.3h1l10.7-6.1a3.9,3.9,0,0,1,3-.3,1.6,1.6,0,0,1,.9.3l10.6,6.2h1v.5l74.9,43.6h0l10.7,6.2h.9v1.2h0a.4.4,0,0,1-.1.3h0v.2h-.1l-.2.2-.3.2h0l-10.8,6.3a2.9,2.9,0,0,1-1,.3l-1,.2a4.6,4.6,0,0,1-2-.5l-10.7-6.3h0L194,373.5A1.4,1.4,0,0,1,193.2,372.4Z"></path> <path class="cls-21" d="M413.2,401.3h0v-1.2l.7.2c0-.1,0-.1.1-.1l2.9-1.7a4.4,4.4,0,0,1,3.9,0l10,5.8,1.6.4v1.2a1.4,1.4,0,0,1-.8,1.1l-2.9,1.7a4.7,4.7,0,0,1-4,0L414,402.5a1.4,1.4,0,0,1-.8-1.2Z"></path> <path class="cls-21" d="M396.3,391.5h0v-1.2l.7.2a.1.1,0,0,1,.1-.1l2.9-1.7a4.4,4.4,0,0,1,3.9,0l10,5.8,1.6.4v1.2a1.4,1.4,0,0,1-.8,1.1l-2.9,1.7a4.7,4.7,0,0,1-4,0l-10.7-6.3a1.4,1.4,0,0,1-.8-1.1Z"></path> <path class="cls-21" d="M379.4,381.7h0v-1.2l.7.2h.1l2.9-1.7a4.3,4.3,0,0,1,4,0l9.9,5.8,1.6.3v1.3a1.4,1.4,0,0,1-.8,1.1l-2.9,1.7a4.4,4.4,0,0,1-3.9,0l-10.8-6.3a1.4,1.4,0,0,1-.8-1.1Z"></path> <path class="cls-21" d="M362.5,371.9h0v-1.2h.9l2.9-1.7a3.9,3.9,0,0,1,3.9,0l10,5.8,1.6.3v1.3a1.6,1.6,0,0,1-.9,1.1l-2.9,1.7a4.5,4.5,0,0,1-3.9,0L363.3,373a1.4,1.4,0,0,1-.8-1.1Z"></path> <path class="cls-21" d="M345.7,362.1h0v-1.2h.8l2.9-1.7a3.9,3.9,0,0,1,3.9,0l10,5.8,1.6.3v1.3a1.4,1.4,0,0,1-.8,1.1l-2.9,1.7a4.7,4.7,0,0,1-4,0l-10.7-6.3a1.2,1.2,0,0,1-.8-1.1Z"></path> <path class="cls-21" d="M328.8,352.3h0v-1.2h.8l2.9-1.6a4.1,4.1,0,0,1,4,0l9.9,5.7,1.6.4v1.3a1.4,1.4,0,0,1-.8,1.1l-2.9,1.7a4.4,4.4,0,0,1-3.9,0l-10.8-6.3a1.4,1.4,0,0,1-.8-1.1Z"></path> <path class="cls-21" d="M311.9,342.5h0v-1.2h.8l3-1.6a3.9,3.9,0,0,1,3.9,0l9.9,5.7,1.6.4v1.3a1.4,1.4,0,0,1-.8,1.1l-2.9,1.7a4.4,4.4,0,0,1-3.9,0l-10.8-6.3a1.4,1.4,0,0,1-.8-1.1Z"></path> <path class="cls-21" d="M295,332.7h0v-1.2h.9l2.9-1.7a4.4,4.4,0,0,1,3.9,0l10,5.8,1.6.4v1.3a1.6,1.6,0,0,1-.9,1.1l-2.9,1.7a4.5,4.5,0,0,1-3.9,0l-10.8-6.3a1.4,1.4,0,0,1-.8-1.1Z"></path> <path class="cls-21" d="M278.2,322.9h0v-1.1h.8l2.9-1.7a4.5,4.5,0,0,1,3.9,0l10,5.8,1.6.4v1.3a1.4,1.4,0,0,1-.8,1.1l-2.9,1.7a4.7,4.7,0,0,1-4,0L279,324a1.2,1.2,0,0,1-.8-1.1Z"></path> <path class="cls-21" d="M261.3,313.1h0v-1.2l.7.2h.1l2.9-1.7a4.7,4.7,0,0,1,4,0l9.9,5.8,1.6.4v1.3a1.4,1.4,0,0,1-.8,1.1l-2.9,1.6a4.2,4.2,0,0,1-3.9.1l-10.8-6.3a1.4,1.4,0,0,1-.8-1.1Z"></path> <path class="cls-21" d="M244.4,303.3h0V302l.7.2h.1l3-1.7a4.4,4.4,0,0,1,3.9,0l9.9,5.8,1.7.4v1.3a1.4,1.4,0,0,1-.8,1.1l-2.9,1.6a3.9,3.9,0,0,1-3.9,0l-10.8-6.2a1.4,1.4,0,0,1-.8-1.1Z"></path> <path class="cls-21" d="M227.5,293.5h0v-1.2l.7.2h.2l2.9-1.7a4.5,4.5,0,0,1,3.9,0l10,5.8,1.6.4v1.3a1.7,1.7,0,0,1-.8,1.1l-3,1.6a3.9,3.9,0,0,1-3.9,0l-10.8-6.2a1.7,1.7,0,0,1-.8-1.1Z"></path> <path class="cls-21" d="M210.7,283.7h0v-1.2l.7.2a.1.1,0,0,1,.1-.1l2.9-1.7a4.4,4.4,0,0,1,3.9,0l10,5.8,1.6.4v1.3c0,.4-.3.7-.8,1l-2.9,1.7a4.1,4.1,0,0,1-4,0l-10.7-6.2a1.2,1.2,0,0,1-.8-1.1Z"></path> <path class="cls-21" d="M389,425.6h.8l10.9-6.2a3.9,3.9,0,0,1,3.9,0l20,11.6,1.1.2v1.1h0c0,.4-.3.7-.8,1L414,439.7a4.4,4.4,0,0,1-3.9,0l-20.3-11.8a1.4,1.4,0,0,1-.8-1.1h0Z"></path> <path class="cls-21" d="M363.5,430.5l.7.2h.1l10.8-6.3a4.7,4.7,0,0,1,4,0l28.1,16.4,1.4.3v1.2h0a1.4,1.4,0,0,1-.8,1.1L397,449.6a4.7,4.7,0,0,1-4,0l-28.7-16.7a1.5,1.5,0,0,1-.8-1.2h0Z"></path> <path class="cls-21" d="M346.3,440.4l.7.2a.1.1,0,0,0,.1-.1l10.8-6.2a4.7,4.7,0,0,1,4,0L390,450.6l1.4.3v1.2h0a1.7,1.7,0,0,1-.8,1.2l-10.9,6.2a4.4,4.4,0,0,1-3.9,0l-28.7-16.7a1.2,1.2,0,0,1-.8-1.1h0Z"></path> <path class="cls-21" d="M176.6,302.1h.8l10.8-6.3a4.7,4.7,0,0,1,4,0l20.3,11.9h1.2v1.2h0a1.5,1.5,0,0,1-.8,1L202,316.5a4.4,4.4,0,0,1-3.9,0l-20.7-12a1.7,1.7,0,0,1-.8-1.2h0Z"></path> <path class="cls-21" d="M160.3,312.1l10.8-6.3a4.7,4.7,0,0,1,4,0l29.1,16.9c1.1.7,1.1,1.7,0,2.3l-10.8,6.3a4.7,4.7,0,0,1-4,0l-29.1-17c-1.1-.6-1.1-1.6,0-2.2Z"></path> <path class="cls-21" d="M150.5,338.4h0v-1.2l.7.2h.1l2.9-1.7a4.7,4.7,0,0,1,4,0l9.9,5.8,1.6.4V343a1.4,1.4,0,0,1-.8,1.1l-2.9,1.7a4.5,4.5,0,0,1-3.9,0l-10.8-6.3a1.4,1.4,0,0,1-.8-1.1Z"></path> <path class="cls-21" d="M142.6,343h0v-1.2h.8l2.9-1.6a4.1,4.1,0,0,1,4,0l9.9,5.7,1.6.4v1.3a1.4,1.4,0,0,1-.8,1.1l-2.9,1.7a4.4,4.4,0,0,1-3.9,0l-10.8-6.3a1.4,1.4,0,0,1-.8-1.1Z"></path> <path class="cls-21" d="M330.2,430.7l10.9-6.2a3.9,3.9,0,0,1,3.9,0l10.8,6.2a1.2,1.2,0,0,1-.1,2.3l-10.8,6.3a4.4,4.4,0,0,1-3.9,0L330.2,433c-1.1-.6-1.1-1.6,0-2.3Z"></path> </g> <path class="cls-21" d="M430,411.1h0v-1.3l.8.2h.1l2.9-1.7a4.4,4.4,0,0,1,3.9,0l12.4,7.2,1.8.5v1.3h0a1.6,1.6,0,0,1-.8,1l-3,1.7a3.9,3.9,0,0,1-3.9,0l-13.4-7.7A1.7,1.7,0,0,1,430,411.1Z"></path> <g> <path class="cls-22" d="M416.5,420.1l10.8-6.3a4.4,4.4,0,0,1,3.9,0l10.8,6.3c1.1.6,1.1,1.6,0,2.3l-10.8,6.2a4.1,4.1,0,0,1-4,0l-10.7-6.2a1.2,1.2,0,0,1,0-2.3Z"></path> <path class="cls-22" d="M399.6,410.3l10.8-6.3a4.7,4.7,0,0,1,4,0l10.7,6.3c1.1.6,1.1,1.6,0,2.3l-10.8,6.2a3.9,3.9,0,0,1-3.9,0l-10.8-6.2c-1.1-.7-1.1-1.7,0-2.3Z"></path> <path class="cls-22" d="M382.7,400.5l10.9-6.3a4.4,4.4,0,0,1,3.9,0l10.8,6.3c1,.6,1,1.6-.1,2.3L397.4,409a4.4,4.4,0,0,1-3.9,0l-10.8-6.2c-1.1-.7-1.1-1.7,0-2.3Z"></path> <path class="cls-22" d="M365.9,390.7l10.8-6.3a4.5,4.5,0,0,1,3.9,0l10.8,6.3c1.1.6,1.1,1.6,0,2.3l-10.9,6.2a4.5,4.5,0,0,1-3.9,0L365.8,393a1.2,1.2,0,0,1,.1-2.3Z"></path> <path class="cls-22" d="M349,380.9l10.8-6.3a4.4,4.4,0,0,1,3.9,0l10.8,6.3c1.1.6,1.1,1.6,0,2.3l-10.8,6.2a4.7,4.7,0,0,1-4,0L349,383.2c-1.1-.7-1.1-1.7,0-2.3Z"></path> <path class="cls-22" d="M332.1,371.1l10.8-6.3a4.7,4.7,0,0,1,4,0l10.7,6.3c1.1.6,1.1,1.6,0,2.2l-10.8,6.3a4.4,4.4,0,0,1-3.9,0l-10.8-6.3c-1.1-.6-1.1-1.6,0-2.2Z"></path> <path class="cls-22" d="M315.2,361.3l10.9-6.3a4.5,4.5,0,0,1,3.9,0l10.8,6.3c1,.6,1,1.6-.1,2.2l-10.8,6.3a4.4,4.4,0,0,1-3.9,0l-10.8-6.3c-1.1-.6-1.1-1.6,0-2.2Z"></path> <path class="cls-22" d="M298.4,351.5l10.8-6.3a4.4,4.4,0,0,1,3.9,0l10.8,6.3c1.1.6,1.1,1.6,0,2.2L313,360a4.5,4.5,0,0,1-3.9,0l-10.8-6.3c-1-.6-1-1.6.1-2.2Z"></path> <path class="cls-22" d="M281.5,341.7l10.8-6.3a4.4,4.4,0,0,1,3.9,0l10.8,6.3c1.1.6,1.1,1.6,0,2.2l-10.8,6.3a4.7,4.7,0,0,1-4,0l-10.7-6.3c-1.1-.6-1.1-1.6,0-2.2Z"></path> <path class="cls-22" d="M264.6,331.8l10.8-6.2a4.7,4.7,0,0,1,4,0l10.7,6.2c1.1.7,1.1,1.7,0,2.3l-10.8,6.3a4.4,4.4,0,0,1-3.9,0l-10.8-6.3c-1.1-.6-1.1-1.6,0-2.3Z"></path> <path class="cls-22" d="M247.7,322l10.9-6.2a4.5,4.5,0,0,1,3.9,0l10.8,6.2a1.2,1.2,0,0,1-.1,2.3l-10.8,6.3a4.5,4.5,0,0,1-3.9,0l-10.8-6.3c-1.1-.6-1-1.6,0-2.3Z"></path> <path class="cls-22" d="M356.2,404.8l10.8-6.3a4.7,4.7,0,0,1,4,0l10.7,6.3c1.1.6,1.1,1.6,0,2.2l-10.8,6.3a4.4,4.4,0,0,1-3.9,0L356.2,407c-1.1-.6-1.1-1.6,0-2.2Z"></path> <path class="cls-22" d="M339.3,394.9l10.9-6.2a4.4,4.4,0,0,1,3.9,0l10.8,6.3c1,.6,1,1.6-.1,2.2L354,403.5a4.5,4.5,0,0,1-3.9,0l-10.8-6.3c-1.1-.6-1.1-1.6,0-2.3Z"></path> <path class="cls-22" d="M322.5,385.1l10.8-6.2a4.5,4.5,0,0,1,3.9,0l10.8,6.2c1.1.7,1.1,1.7,0,2.3l-10.9,6.3a4.5,4.5,0,0,1-3.9,0l-10.8-6.3c-1-.6-1-1.6.1-2.3Z"></path> <path class="cls-22" d="M305.6,375.3l10.8-6.2a4.1,4.1,0,0,1,3.9,0l10.8,6.2c1.1.7,1.1,1.7,0,2.3l-10.8,6.3a4.7,4.7,0,0,1-4,0l-10.7-6.3c-1.1-.6-1.1-1.6,0-2.3Z"></path> <path class="cls-22" d="M288.7,365.5l10.8-6.2a4.1,4.1,0,0,1,4,0l10.7,6.2c1.1.7,1.1,1.7,0,2.3l-10.8,6.3a4.4,4.4,0,0,1-3.9,0l-10.8-6.3c-1.1-.6-1.1-1.6,0-2.3Z"></path> <path class="cls-22" d="M271.8,355.7l10.9-6.2a3.9,3.9,0,0,1,3.9,0l10.8,6.2a1.2,1.2,0,0,1-.1,2.3l-10.8,6.3a4.4,4.4,0,0,1-3.9,0L271.8,358c-1.1-.6-1.1-1.6,0-2.3Z"></path> <path class="cls-22" d="M255,345.9l10.8-6.2a3.9,3.9,0,0,1,3.9,0l10.8,6.2a1.2,1.2,0,0,1,0,2.3l-10.9,6.2a4.1,4.1,0,0,1-3.9.1l-10.8-6.3a1.2,1.2,0,0,1,.1-2.3Z"></path> <path class="cls-22" d="M238.1,336.1l10.8-6.2a4.1,4.1,0,0,1,4,0l10.7,6.2a1.2,1.2,0,0,1,0,2.3l-10.8,6.2a4.1,4.1,0,0,1-4,0l-10.7-6.2a1.2,1.2,0,0,1,0-2.3Z"></path> <path class="cls-22" d="M221.2,326.3l10.9-6.2a3.9,3.9,0,0,1,3.9,0l10.7,6.2c1.1.6,1.1,1.6,0,2.3l-10.8,6.2a3.9,3.9,0,0,1-3.9,0l-10.8-6.2a1.2,1.2,0,0,1,0-2.3Z"></path> <path class="cls-22" d="M204.3,316.5l10.9-6.3a4.4,4.4,0,0,1,3.9,0l10.8,6.3c1,.6,1,1.6,0,2.3L219,325a3.9,3.9,0,0,1-3.9,0l-10.8-6.2a1.2,1.2,0,0,1,0-2.3Z"></path> <path class="cls-22" d="M230.9,312.2l10.8-6.2a4.5,4.5,0,0,1,3.9,0l10.8,6.2c1.1.7,1.1,1.7,0,2.3l-10.9,6.3a4.4,4.4,0,0,1-3.9,0l-10.8-6.3c-1-.6-1-1.6.1-2.3Z"></path> <path class="cls-22" d="M214,302.4l10.8-6.2a4.1,4.1,0,0,1,3.9,0l10.8,6.2c1.1.7,1.1,1.7,0,2.3L228.7,311a4.7,4.7,0,0,1-4,0L214,304.7c-1.1-.6-1.1-1.6,0-2.3Z"></path> <path class="cls-22" d="M348.1,459.6l10.8-6.3a4.4,4.4,0,0,1,3.9,0l10.8,6.3c1.1.6,1.1,1.6,0,2.3l-10.8,6.2a4.7,4.7,0,0,1-4,0l-10.7-6.2c-1.1-.7-1.1-1.7,0-2.3Z"></path> <path class="cls-22" d="M331.2,449.8l10.8-6.3a4.7,4.7,0,0,1,4,0l10.7,6.3c1.1.6,1.1,1.6,0,2.3l-10.8,6.2a4.4,4.4,0,0,1-3.9,0l-10.8-6.2c-1.1-.7-1.1-1.7,0-2.3Z"></path> <path class="cls-22" d="M314.3,440l10.9-6.3a4.4,4.4,0,0,1,3.9,0l10.8,6.3a1.2,1.2,0,0,1,0,2.2L329,448.5a4.5,4.5,0,0,1-3.9,0l-10.8-6.3c-1.1-.6-1.1-1.6,0-2.2Z"></path> <path class="cls-22" d="M297.5,430.2l10.8-6.3a4.5,4.5,0,0,1,3.9,0l10.8,6.3c1.1.6,1.1,1.6,0,2.2l-10.9,6.3a4.4,4.4,0,0,1-3.9,0l-10.7-6.3c-1.1-.6-1.1-1.6,0-2.2Z"></path> <path class="cls-22" d="M373.1,414.6l10.8-6.3a4.4,4.4,0,0,1,3.9,0l10.8,6.3c1.1.6,1.1,1.6,0,2.2l-10.8,6.3a4.7,4.7,0,0,1-4,0l-10.7-6.3c-1.1-.6-1.1-1.6,0-2.2Z"></path> <path class="cls-22" d="M194.5,291.1l10.8-6.2a4.1,4.1,0,0,1,4,0l13.3,7.7c1.1.7,1.1,1.7,0,2.3l-10.8,6.3a4.4,4.4,0,0,1-3.9,0l-13.4-7.8a1.2,1.2,0,0,1,0-2.3Z"></path> <path class="cls-22" d="M194,370.1l10.9-6.3a4.4,4.4,0,0,1,3.9,0l97.3,56.6c1.1.6,1.1,1.6,0,2.2l-10.8,6.3a4.7,4.7,0,0,1-4,0L194,372.3c-1.1-.6-1.1-1.6,0-2.2Z"></path> <path class="cls-22" d="M414,399l2.9-1.7a4.4,4.4,0,0,1,3.9,0l10.8,6.2c1.1.7,1.1,1.7,0,2.3l-2.9,1.7a4.7,4.7,0,0,1-4,0L414,401.2c-1.1-.6-1.1-1.6,0-2.2Z"></path> <path class="cls-22" d="M397.1,389.2l2.9-1.7a4.4,4.4,0,0,1,3.9,0l10.8,6.2c1.1.7,1.1,1.7,0,2.3l-2.9,1.7a4.7,4.7,0,0,1-4,0l-10.7-6.3c-1.1-.6-1.1-1.6,0-2.2Z"></path> <path class="cls-22" d="M380.2,379.4l2.9-1.7a4.1,4.1,0,0,1,4,0l10.7,6.2c1.1.7,1.1,1.7,0,2.3l-2.9,1.7a4.4,4.4,0,0,1-3.9,0l-10.8-6.3c-1.1-.6-1.1-1.6,0-2.2Z"></path> <path class="cls-22" d="M363.4,369.6l2.9-1.7a3.9,3.9,0,0,1,3.9,0l10.8,6.2c1,.7,1,1.7,0,2.3l-3,1.7a4.5,4.5,0,0,1-3.9,0l-10.8-6.3c-1-.6-1-1.6.1-2.2Z"></path> <path class="cls-22" d="M346.5,359.7l2.9-1.6a3.9,3.9,0,0,1,3.9,0l10.8,6.2a1.2,1.2,0,0,1,0,2.3l-2.9,1.7a4.7,4.7,0,0,1-4,0L346.5,362c-1.1-.6-1.1-1.6,0-2.3Z"></path> <path class="cls-22" d="M329.6,349.9l2.9-1.6a4.1,4.1,0,0,1,4,0l10.7,6.2a1.2,1.2,0,0,1,0,2.3l-2.9,1.7a4.4,4.4,0,0,1-3.9,0l-10.8-6.3c-1.1-.6-1.1-1.6,0-2.3Z"></path> <path class="cls-22" d="M312.7,340.1l3-1.6a4.1,4.1,0,0,1,3.9-.1l10.7,6.3a1.2,1.2,0,0,1,0,2.3l-2.9,1.7a4.4,4.4,0,0,1-3.9,0l-10.8-6.3c-1.1-.6-1.1-1.6,0-2.3Z"></path> <path class="cls-22" d="M295.9,330.3l2.9-1.7a4.5,4.5,0,0,1,3.9,0l10.8,6.3c1.1.6,1,1.6,0,2.3l-3,1.7a4.5,4.5,0,0,1-3.9,0l-10.8-6.3c-1-.6-1-1.6.1-2.3Z"></path> <path class="cls-22" d="M279,320.5l2.9-1.7a4.4,4.4,0,0,1,3.9,0l10.8,6.3c1.1.6,1.1,1.6,0,2.3l-2.9,1.7a4.7,4.7,0,0,1-4,0L279,322.8c-1.1-.6-1.1-1.6,0-2.3Z"></path> <path class="cls-22" d="M262.1,310.7,265,309a4.7,4.7,0,0,1,4,0l10.7,6.3c1.1.6,1.1,1.6,0,2.3l-2.9,1.6a4.2,4.2,0,0,1-3.9.1L262.1,313a1.2,1.2,0,0,1,0-2.3Z"></path> <path class="cls-22" d="M245.2,300.9l3-1.7a4.4,4.4,0,0,1,3.9,0l10.8,6.3c1,.6,1,1.6-.1,2.3l-2.9,1.6a3.9,3.9,0,0,1-3.9,0l-10.8-6.2a1.2,1.2,0,0,1,0-2.3Z"></path> <path class="cls-22" d="M228.4,291.1l2.9-1.7a4.5,4.5,0,0,1,3.9,0l10.8,6.3c1.1.6,1.1,1.6,0,2.3l-3,1.6a3.9,3.9,0,0,1-3.9,0l-10.8-6.2a1.2,1.2,0,0,1,.1-2.3Z"></path> <path class="cls-22" d="M211.5,281.3l2.9-1.7a4.4,4.4,0,0,1,3.9,0l10.8,6.3c1.1.6,1.1,1.6,0,2.2l-2.9,1.7a4.1,4.1,0,0,1-4,0l-10.7-6.2a1.2,1.2,0,0,1,0-2.3Z"></path> <path class="cls-22" d="M430.9,408.8l2.9-1.7a4.4,4.4,0,0,1,3.9,0l13.4,7.8a1.2,1.2,0,0,1,0,2.2l-3,1.7a3.9,3.9,0,0,1-3.9,0l-13.4-7.7c-1.1-.7-1-1.7.1-2.3Z"></path> <path class="cls-22" d="M389.8,424.4l10.9-6.2a3.9,3.9,0,0,1,3.9,0L424.9,430c1.1.6,1.1,1.6,0,2.2L414,438.5a4.4,4.4,0,0,1-3.9,0l-20.3-11.8c-1.1-.6-1-1.6,0-2.3Z"></path> <path class="cls-22" d="M364.3,429.4l10.8-6.3a4.7,4.7,0,0,1,4,0l28.7,16.7c1.1.7,1.1,1.7,0,2.3L397,448.4a4.7,4.7,0,0,1-4,0l-28.7-16.7c-1.1-.7-1.1-1.7,0-2.3Z"></path> <path class="cls-22" d="M347.1,439.3l10.8-6.2a4.7,4.7,0,0,1,4,0l28.7,16.7c1.1.6,1.1,1.6,0,2.3l-10.9,6.2a4.4,4.4,0,0,1-3.9,0l-28.7-16.7c-1.1-.6-1.1-1.6,0-2.3Z"></path> <path class="cls-22" d="M177.4,301l10.8-6.3a4.7,4.7,0,0,1,4,0l20.7,12.1c1.1.6,1.1,1.6,0,2.2L202,315.3a4.5,4.5,0,0,1-3.9,0l-20.7-12c-1.1-.7-1.1-1.7,0-2.3Z"></path> <path class="cls-22" d="M160.3,310.9l10.8-6.3a4.7,4.7,0,0,1,4,0l29.1,16.9c1.1.7,1.1,1.7,0,2.3l-10.8,6.3a4.7,4.7,0,0,1-4,0l-29.1-17c-1.1-.6-1.1-1.6,0-2.2Z"></path> <path class="cls-22" d="M151.3,336.1l2.9-1.7a4.7,4.7,0,0,1,4,0l10.7,6.2c1.1.7,1.1,1.7,0,2.3l-2.9,1.7a4.4,4.4,0,0,1-3.9,0l-10.8-6.3c-1.1-.6-1.1-1.6,0-2.2Z"></path> <path class="cls-22" d="M143.4,340.6l2.9-1.6a4.1,4.1,0,0,1,4,0l10.7,6.2a1.2,1.2,0,0,1,0,2.3l-2.9,1.7a4.4,4.4,0,0,1-3.9,0l-10.8-6.3c-1.1-.6-1.1-1.6,0-2.3Z"></path> <path class="cls-22" d="M212.4,341.1l10.9-6.2a4.5,4.5,0,0,1,3.9,0l10.8,6.2a1.2,1.2,0,0,1,0,2.3l-10.9,6.3a4.5,4.5,0,0,1-3.9,0l-10.8-6.3c-1-.6-1-1.6,0-2.3Z"></path> <path class="cls-22" d="M195.6,331.3l10.8-6.2a4.4,4.4,0,0,1,3.9,0l10.8,6.2c1.1.7,1.1,1.7,0,2.3l-10.9,6.3a4.4,4.4,0,0,1-3.9,0l-10.7-6.3c-1.1-.6-1.1-1.6,0-2.3Z"></path> <path class="cls-22" d="M195.2,351.1l10.9-6.3a4.4,4.4,0,0,1,3.9,0l10.8,6.3c1,.6,1,1.6-.1,2.3l-10.8,6.2a4.4,4.4,0,0,1-3.9,0l-10.8-6.2a1.2,1.2,0,0,1,0-2.3Z"></path> <path class="cls-22" d="M178.4,341.3l10.8-6.3a4.5,4.5,0,0,1,3.9,0l10.8,6.3c1.1.6,1.1,1.6,0,2.2L193,349.8a4.5,4.5,0,0,1-3.9,0l-10.8-6.2a1.2,1.2,0,0,1,.1-2.3Z"></path> <path class="cls-22" d="M161.5,331.5l10.8-6.3a4.4,4.4,0,0,1,3.9,0l10.8,6.3c1.1.6,1.1,1.6,0,2.2L176.2,340a4.7,4.7,0,0,1-4,0l-10.7-6.3c-1.1-.6-1.1-1.6,0-2.2Z"></path> <path class="cls-22" d="M143.1,320.8l10.8-6.3a4.7,4.7,0,0,1,4,0l12.2,7.2c1.1.6,1.1,1.6,0,2.2l-10.8,6.3a4.4,4.4,0,0,1-3.9,0l-12.3-7.1c-1.1-.7-1.1-1.7,0-2.3Z"></path> <path class="cls-22" d="M246.2,360.8l10.8-6.3a4.7,4.7,0,0,1,4,0l10.7,6.3c1.1.6,1.1,1.6,0,2.2l-10.8,6.3a4.7,4.7,0,0,1-4,0L246.2,363c-1.1-.6-1.1-1.6,0-2.2Z"></path> <path class="cls-22" d="M229.3,351l10.9-6.3a4.4,4.4,0,0,1,3.9,0l10.7,6.3c1.1.6,1.1,1.6,0,2.2L244,359.5a4.4,4.4,0,0,1-3.9,0l-10.8-6.3c-1.1-.6-1.1-1.6,0-2.2Z"></path> <path class="cls-22" d="M229,370.7l10.8-6.3a4.4,4.4,0,0,1,3.9,0l10.8,6.3c1.1.6,1.1,1.6,0,2.3l-10.8,6.2a4.1,4.1,0,0,1-4,0L229,373c-1.1-.7-1.1-1.7,0-2.3Z"></path> <path class="cls-22" d="M212.1,360.9l10.8-6.3a4.7,4.7,0,0,1,4,0l10.7,6.3c1.1.6,1.1,1.6,0,2.3l-10.8,6.2a4.4,4.4,0,0,1-3.9,0l-10.8-6.2c-1.1-.7-1.1-1.7,0-2.3Z"></path> <path class="cls-22" d="M279.9,380.4l10.9-6.3a4.5,4.5,0,0,1,3.9,0l10.8,6.3c1.1.6,1,1.6-.1,2.2l-10.8,6.3a4.4,4.4,0,0,1-3.9,0l-10.8-6.3c-1.1-.6-1.1-1.6,0-2.2Z"></path> <path class="cls-22" d="M263.1,370.6l10.8-6.3a4.4,4.4,0,0,1,3.9,0l10.8,6.3c1.1.6,1.1,1.6,0,2.2l-10.9,6.3a4.4,4.4,0,0,1-3.9,0l-10.7-6.3c-1.1-.6-1.1-1.6,0-2.2Z"></path> <path class="cls-22" d="M262.7,390.3l10.9-6.3a4.2,4.2,0,0,1,3.9.1l10.8,6.2a1.2,1.2,0,0,1-.1,2.3l-10.8,6.2a3.9,3.9,0,0,1-3.9,0l-10.8-6.2a1.2,1.2,0,0,1,0-2.3Z"></path> <path class="cls-22" d="M245.8,380.5l10.9-6.3a4.4,4.4,0,0,1,3.9,0l10.8,6.3c1.1.6,1.1,1.6,0,2.3L260.5,389a3.9,3.9,0,0,1-3.9,0l-10.8-6.2c-1-.7-1-1.7,0-2.3Z"></path> <path class="cls-22" d="M313.7,400l10.8-6.3a4.7,4.7,0,0,1,4,0l10.7,6.3c1.1.6,1.1,1.6,0,2.3l-10.8,6.2a4.7,4.7,0,0,1-4,0l-10.7-6.2c-1.1-.7-1.1-1.7,0-2.3Z"></path> <path class="cls-22" d="M296.8,390.2l10.8-6.3a4.7,4.7,0,0,1,4,0l10.7,6.3c1.1.6,1.1,1.6,0,2.3l-10.8,6.2a4.4,4.4,0,0,1-3.9,0l-10.8-6.2c-1.1-.7-1.1-1.7,0-2.3Z"></path> <path class="cls-22" d="M296.5,409.9l10.8-6.2a3.9,3.9,0,0,1,3.9,0l10.8,6.2a1.2,1.2,0,0,1,0,2.3l-10.9,6.2a3.9,3.9,0,0,1-3.9,0l-10.7-6.2a1.2,1.2,0,0,1,0-2.3Z"></path> <path class="cls-22" d="M279.6,400.1l10.8-6.2a4.1,4.1,0,0,1,4,0l10.7,6.2a1.2,1.2,0,0,1,0,2.3l-10.8,6.2a3.9,3.9,0,0,1-3.9,0l-10.8-6.2a1.2,1.2,0,0,1,0-2.3Z"></path> <path class="cls-22" d="M347.4,419.6l10.9-6.3a4.4,4.4,0,0,1,3.9,0l10.8,6.3c1,.6,1,1.6-.1,2.3l-10.8,6.2a4.1,4.1,0,0,1-3.9,0l-10.8-6.2c-1.1-.7-1.1-1.7,0-2.3Z"></path> <path class="cls-22" d="M330.6,409.8l10.8-6.3a4.5,4.5,0,0,1,3.9,0l10.8,6.3c1.1.6,1.1,1.6,0,2.3l-10.9,6.2a4.5,4.5,0,0,1-3.9,0l-10.7-6.2c-1.1-.7-1.1-1.7,0-2.3Z"></path> <path class="cls-22" d="M330.2,429.5l10.9-6.2a3.9,3.9,0,0,1,3.9,0l10.8,6.2a1.2,1.2,0,0,1-.1,2.3l-10.8,6.3a4.4,4.4,0,0,1-3.9,0l-10.8-6.3c-1.1-.6-1.1-1.6,0-2.3Z"></path> <path class="cls-22" d="M313.3,419.7l10.9-6.2a3.9,3.9,0,0,1,3.9,0l10.8,6.2a1.2,1.2,0,0,1,0,2.3L328,428.3a4.4,4.4,0,0,1-3.9,0L313.3,422c-1-.6-1-1.6,0-2.3Z"></path> <path class="cls-22" d="M177.2,360.2,188,354a4.5,4.5,0,0,1,3.9,0l10.8,6.3c1.1.6,1,1.6,0,2.2l-10.9,6.3a4.5,4.5,0,0,1-3.9,0l-10.8-6.3c-1-.6-1-1.6.1-2.3Z"></path> <path class="cls-22" d="M160.3,350.4l10.8-6.2a4.4,4.4,0,0,1,3.9,0l10.8,6.2c1.1.7,1.1,1.7,0,2.3L175,359a4.7,4.7,0,0,1-4,0l-10.7-6.3c-1.1-.6-1.1-1.6,0-2.3Z"></path> <path class="cls-22" d="M126.1,330.6l10.9-6.3a4.4,4.4,0,0,1,3.9,0l10.7,6.3c1.1.6,1.1,1.6,0,2.3l-10.8,6.2a4.4,4.4,0,0,1-3.9,0l-10.8-6.2c-1.1-.7-1.1-1.7,0-2.3Z"></path> </g> </g> </g> <g> <path id="_Path_28" data-name="&lt;Path&gt;" class="cls-2" d="M173.4,2.3l3.5-2h0a3.3,3.3,0,0,1,3.3.3L424.8,141.9a10,10,0,0,1,4.4,7.8V346.4c0,1.5-.5,2.5-1.3,2.9h0l-3.6,2.1L180.2,207.7a9.8,9.8,0,0,1-4.5-7.8Z"></path> <path id="_Path_29" data-name="&lt;Path&gt;" class="cls-2" d="M176.5,2.7,421.1,144a9.8,9.8,0,0,1,4.5,7.8V348.5c0,2.8-2,4-4.5,2.6L176.5,209.8A10,10,0,0,1,172,202V5.3C172,2.4,174,1.2,176.5,2.7Z"></path> <g> <path id="_Path_30" data-name="&lt;Path&gt;" class="cls-23" d="M320.2,155.5v84.2c0,1.5-1,2.1-2.3,1.4L192.7,169a5.4,5.4,0,0,1-2.4-4.1V80.7c0-1.5,1.1-2.1,2.4-1.4l125.2,72.1A5.3,5.3,0,0,1,320.2,155.5Z"></path> <path id="_Path_31" data-name="&lt;Path&gt;" class="cls-10" d="M314.7,233s-11.3-14.9-14.6-21.2c-4.9-9.5-3.8-27.8-13.1-33.2s-7.9,18.8-20,11.9-12.1-15.2-18.3-19.2-11.5,4-18.7,0-12.1-32.8-20.6-37.5S196,154.3,196,154.3v10.2Z"></path> <path id="_Path_32" data-name="&lt;Path&gt;" class="cls-12" d="M314.7,233s-5.3-28.6-11.1-32c-8.3-4.8-5.4,16.5-16.6,9.6-9.2-5.6-7.5-30-19.5-36.7-8.9-5.1-8.3,14.1-19.4,7.9s-8.3-37-19.4-43.2-9.5,26.7-18.1,21.6S203.9,146,196,138.9v25.6Z"></path> <polygon id="_Path_33" data-name="&lt;Path&gt;" class="cls-11" points="309.1 154.9 259.2 126.1 259.2 129.3 309.1 158.1 309.1 154.9"></polygon> <polygon id="_Path_34" data-name="&lt;Path&gt;" class="cls-12" points="253.7 121.3 253.7 127.7 248.1 124.5 248.1 118.1 253.7 121.3"></polygon> <polygon id="_Path_35" data-name="&lt;Path&gt;" class="cls-10" points="253.7 134.1 253.7 140.5 248.1 137.3 248.1 130.9 253.7 134.1"></polygon> <polygon id="_Path_36" data-name="&lt;Path&gt;" class="cls-11" points="309.1 167.7 259.2 138.9 259.2 142.1 309.1 170.9 309.1 167.7"></polygon> <path id="_Path_37" data-name="&lt;Path&gt;" class="cls-23" d="M411.1,208.9v84.2c0,1.5-1,2.1-2.3,1.3L333.5,251a5.4,5.4,0,0,1-2.4-4.1V162.7c0-1.5,1.1-2.1,2.4-1.4l75.3,43.5A5.1,5.1,0,0,1,411.1,208.9Z"></path> <polygon id="_Path_38" data-name="&lt;Path&gt;" class="cls-11" points="390.6 202 405.6 210.7 405.6 213.5 390.6 204.8 390.6 202"></polygon> <polygon id="_Path_39" data-name="&lt;Path&gt;" class="cls-11" points="366.9 188.5 381.9 197.2 381.9 200 366.9 191.3 366.9 188.5"></polygon> <polygon id="_Path_40" data-name="&lt;Path&gt;" class="cls-4" points="385.3 198.3 389.4 200.7 389.4 205.5 385.3 203.1 385.3 198.3"></polygon> <polygon id="_Path_41" data-name="&lt;Path&gt;" class="cls-10" points="361.7 184.6 365.9 187 365.8 191.8 361.7 189.4 361.7 184.6"></polygon> <polygon id="_Path_42" data-name="&lt;Path&gt;" class="cls-24" points="338.1 171 342.3 173.4 342.3 178.2 338.1 175.8 338.1 171"></polygon> <polygon id="_Path_43" data-name="&lt;Path&gt;" class="cls-11" points="343.2 175 358.3 183.7 358.3 186.5 343.2 177.9 343.2 175"></polygon> <path id="_Compound_Path_" data-name="&lt;Compound Path&gt;" class="cls-12" d="M369.8,208.1c12.3,7.1,22.2,24.3,22.2,38.5s-9.9,19.9-22.2,12.8-22.2-24.3-22.2-38.4S357.6,201.1,369.8,208.1Zm3.4,45.4a13.6,13.6,0,0,0,6.5,2.1c4.8,0,5.5-5.7,5.5-9,0-11.8-8.6-26.7-18.8-32.5a13,13,0,0,0-6.5-2.2c-4.7,0-5.5,5.7-5.5,9.1C354.4,232.7,363,247.6,373.2,253.5Z"></path> <path id="_Path_44" data-name="&lt;Path&gt;" class="cls-24" d="M366.4,214.1a13,13,0,0,0-6.5-2.2c-3,0-4.3,2.2-5,4.7l-4.9-5.7c3.6-6.3,11.1-7.8,19.8-2.8v8.3A18.5,18.5,0,0,0,366.4,214.1Z"></path> <path id="_Path_45" data-name="&lt;Path&gt;" class="cls-10" d="M350,210.9l4.9,5.7a23.7,23.7,0,0,0-.5,4.4,29.9,29.9,0,0,0,.4,4.1l-7.2-4.1a19.8,19.8,0,0,1,2.4-10.1Z"></path> </g> </g> <g> <path class="cls-25" d="M204.1,348.9s5.8.7,5.5,7.2-6.2,34.9-13.2,40.5-6.8-7.8-6.8-7.8S193.9,347.4,204.1,348.9Z"></path> <path class="cls-25" d="M172.8,411a15.6,15.6,0,0,1,2.9,2,8.5,8.5,0,0,1,2.3,3.6s21.2-15.6,23.2-22.7c0,0-2.9-11.3-11.4-5.9Z"></path> <path class="cls-26" d="M198.7,398.2c5.3-7.1,10.7-35.5,10.9-42.1.1-1.2-6.3-3.5-6.6-4.4-10.9,8.1,6.2,38.9-27,61.6,0,0,2.7,3.2,2,3.3C175.2,417.2,191.7,407.5,198.7,398.2Z"></path> <g> <g> <path class="cls-3" d="M171.9,484.9a7.8,7.8,0,0,0,.1,1.3c-.2,1.1-.3,3.2-1.2,3.9s-4,1.9-6.4,3.6-4.4,3.3-6.4,3.8a17.6,17.6,0,0,1-7.2.5c-2.8-.4-5.6-2.1-5.4-4.6a5.2,5.2,0,0,1,.6-2.7c1.6-.9,8.5-1.3,11.6-2.6s6.6-2.4,9.7-3.9C168.8,483.6,172.8,482,171.9,484.9Z"></path> <path class="cls-16" d="M170.4,488c1.8-1.2,2.1-3.7,2-6a4.2,4.2,0,0,0-2-3.7,5,5,0,0,0-2-.8c-6.9-1.3-8.3,2.1-9.8,4.7s-15.4,5.7-12.3,10.6a3.2,3.2,0,0,0,1.4,1.2,12.1,12.1,0,0,0,11.1.3c2.9-1.3,5.2-3.8,8.2-4.9A14.3,14.3,0,0,0,170.4,488Z"></path> <path class="cls-27" d="M177.9,447.1c-.9,12.8-6.1,20.1-6.8,33.2-.3,2.5-9.6,1.7-9.2-1.3s1.1-19.9,1.5-25.2,1.1-17.3,1.6-21.4,10.4-1,12.4.1,3.4,1.6,3.4,2.8S178.3,441.6,177.9,447.1Z"></path> </g> <g> <path class="cls-3" d="M185.4,494a5.4,5.4,0,0,1,.2,1.1c-.2,1-.3,3.6-1.1,4.5-4.4,4.9-10.6,10.8-15.3,10.8s-7.8-2-8.2-4.6a7.1,7.1,0,0,1,.5-3.6,6.3,6.3,0,0,1,4.8-3.5,8.8,8.8,0,0,0,4.5-1.6c2.9-2.1,6.8-2.6,10-3.9C182.3,492.6,186.4,491.2,185.4,494Z"></path> <path class="cls-16" d="M183.7,498.2c2-1.3,2.4-3.9,2.6-6.1.5-5.7-2.6-5.8-6-6.4s-5.5,2.2-8,5.6-15.8,10.6-9.7,14.8C172.1,512.7,179.8,500.6,183.7,498.2Z"></path> <path class="cls-27" d="M191.9,454.4c0,13.2-7.4,21.4-7.1,34.9-1,3.3-8.8,3-9.3-.4s.6-35.1.8-39.3a40.4,40.4,0,0,1,1.4-7.7c2.2.1,11.3-.2,13.4.7s3.6,1.3,3.8,2.5S191.9,448.8,191.9,454.4Z"></path> </g> <path class="cls-28" d="M200.9,402.6s-38.3,24.1-39.5,30.2-.8,42.3-.8,42.3,5.6,2.4,10.4,2.4h1.2l1-.2h.1l.9-.2a.1.1,0,0,1,.1-.1,2,2,0,0,0,.8-.4l4-34s30.1-22.2,31.5-23,0-.1.1-.2S200.9,402.6,200.9,402.6Z"></path> <path class="cls-29" d="M233.6,412.6h-.1a1.3,1.3,0,0,0-.1-.6s-16.5,7.4-32.6-8.6c0,0,4.4,13.2,6.8,16.1,0,0-30.7,16.2-32.2,24s-3.5,41.4-3.5,41.4a18.8,18.8,0,0,0,11.5,2.2H185l1-.3h.4l1.5-.4s4.6-25.9,4.9-36.3C192.8,449.9,239.6,437.3,233.6,412.6Z"></path> </g> <path class="cls-25" d="M220.6,351.1s14.6,7.5,15,8.6,4.1,3.8-1.3,16.7c0,0-7.2,13.9-3.6,27.8a84.2,84.2,0,0,0,4,12.3s-6.5,9.7-24.7,3c-3.7-1.4-9.9-6.4-11.8-10.4a97.5,97.5,0,0,0-.5-25.9c-2.3-13.9-3.6-32,4.3-34.4C202,348.8,204,346.4,220.6,351.1Z"></path> <path class="cls-30" d="M197.7,383.2a97.5,97.5,0,0,1,.5,25.9c1.9,4,8.1,9,11.8,10.4a49.7,49.7,0,0,0,5.7,1.6,77.9,77.9,0,0,1-3.2-10.3c-3.7-13.9,3.6-27.9,3.6-27.9,5.4-12.8,1.6-15.5,1.2-16.6s-15-8.6-15-8.6l-5.5-1.5C195.1,363.3,196.2,374.1,197.7,383.2Z"></path> <path class="cls-31" d="M215.5,346.6s-10.7,5.6-5.9,13.6l-5,2.8S199.7,349,215.5,346.6Z"></path> <path class="cls-32" d="M222.3,341s-4.5,6.8-1,11.4c2,2.5-2.6,8.6-10.6,8.1,0,0-3.5-.9-3.2-2.1.8-3-.3-4.6-1.6-6.9S222.3,341,222.3,341Z"></path> <path class="cls-33" d="M221.3,352.4a1.9,1.9,0,0,1,.5,1c-3-3-13,.2-13,.2l11.8-11.8.8-.4.2.8C220.5,344.3,218.7,349,221.3,352.4Z"></path> <path class="cls-34" d="M207.5,358.4c.8-4.7-.3-4.6-1.6-6.9-.4-.6-.2-.8,1.5-2.1a4.9,4.9,0,0,1,1.3,1.5c3.1,4.8,4,7.6,3.7,9.6a9.7,9.7,0,0,1-1.7,0C209.8,360.4,207.3,359.8,207.5,358.4Z"></path> <g> <path class="cls-32" d="M223.9,337.2s-1.9,9-8.1,13.1-11.8,5.9-13-.6-3.5-18.4,1.1-21.1,8.1-7.6,14.9-5.1C218.8,323.5,226.6,327.1,223.9,337.2Z"></path> <path class="cls-35" d="M223.9,337.2a20.2,20.2,0,0,1-8.1,13.2,23,23,0,0,1-5.2,2.6c2.9-2.1,3.2-2.7,5.5-5.2s-3.4-1.6.4-8.3c1.3-2.3-5,.7-6.4.6-8.4-.2-7.8-5-8-7a14.9,14.9,0,0,1,.7-2.5l.8-1.6.3-.4q1.3-1.7,2.7-3l14.1.4c.1,0,1.9,2.4,3.5,4.7A13.4,13.4,0,0,1,223.9,337.2Z"></path> <path class="cls-36" d="M220.2,345.9s6.9-6.3,4.5-15.3a10.6,10.6,0,0,0-9.3-8.2c-3.8-.4-11.2-.2-14.1,7.6-1,2.4-.3,7.7,9.1,5.2,1.4-.3,5-.8,6.3.3s1.4,3.4.8,5.2.9,1.8,1.1,1.4,2-4.9,3.7-3.1S220.4,345.6,220.2,345.9Z"></path> <path class="cls-37" d="M220.2,345.9c.2-.3,3.7-5.3,2.1-6.9s-3.5,2.8-3.7,3.1-1.7.2-1.1-1.4.5-4-.8-5.2-4.3-.5-6.3-.3c1.6-1,4.8-1.3,5.9-4s3.6-5.1,5.6-5.7a10.6,10.6,0,0,1,2.8,5.1C227.1,339.6,220.2,345.9,220.2,345.9Z"></path> </g> <path class="cls-31" d="M220.3,350.2a13.9,13.9,0,0,1-10.7,10l2.6,6.4S228.4,358.4,220.3,350.2Z"></path> <path class="cls-26" d="M235.6,359.7c.3,1.1,4.1,3.8-1.3,16.7,0,0-6.1,13.8-2.9,27.7,1.4,6,1.2,6.4,3.5,11.5,1.3,2.9-4.4,4.6-9.6,6.2-3.1-7.3-2.8-7.5-4.1-15.5-1.7-11.1-.5-20.2,8.6-31.3s4.6-13.6,4.8-16.2A3,3,0,0,1,235.6,359.7Z"></path> <g> <g> <path class="cls-38" d="M191.3,434.8l-27.9-16.1c-1.5-.9-1.3-2.4.4-3.3l18.6-10.8a6.6,6.6,0,0,1,5.8-.3l27.9,16.2c1.5.8,1.3,2.3-.4,3.3l-18.6,10.8A6.3,6.3,0,0,1,191.3,434.8Z"></path> <rect class="cls-39" x="215.9" y="420.3" width="1.3" height="1.54"></rect> <path class="cls-40" d="M191.3,433.3l-27.9-16.1c-1.5-.8-1.3-2.3.4-3.3l18.6-10.8a6.3,6.3,0,0,1,5.8-.2L216.1,419c1.5.9,1.3,2.4-.4,3.3l-18.6,10.8A6.3,6.3,0,0,1,191.3,433.3Z"></path> <polygon class="cls-41" points="185.9 403.4 166.2 414.8 195.5 431.6 215.3 420.3 185.9 403.4"></polygon> <polygon class="cls-22" points="184.2 403.2 182.7 404.1 212.1 420.9 213.6 420.1 184.2 403.2"></polygon> <polygon class="cls-22" points="206.6 419 205.1 419.9 209.5 422.4 211.1 421.5 206.6 419"></polygon> <polygon class="cls-22" points="201.7 416.2 200.2 417 203.3 418.8 204.9 418 201.7 416.2"></polygon> <polygon class="cls-22" points="197.8 413.9 196.3 414.8 199.5 416.6 201 415.8 197.8 413.9"></polygon> <polygon class="cls-22" points="194 411.7 192.5 412.6 195.6 414.4 197.2 413.6 194 411.7"></polygon> <polygon class="cls-22" points="203.3 423.2 201.8 424.1 204 425.3 205.5 424.5 203.3 423.2"></polygon> <polygon class="cls-22" points="200.1 421.3 198.6 422.2 200.8 423.5 202.3 422.6 200.1 421.3"></polygon> <polygon class="cls-22" points="196.1 419.1 194.6 420 197.8 421.8 199.3 420.9 196.1 419.1"></polygon> <polygon class="cls-22" points="200.7 424.7 199.2 425.5 201.4 426.8 203 426 200.7 424.7"></polygon> <polygon class="cls-22" points="197.5 422.8 196 423.7 198.2 424.9 199.8 424.1 197.5 422.8"></polygon> <polygon class="cls-22" points="198 426.1 196.5 427 198.7 428.3 200.2 427.4 198 426.1"></polygon> <polygon class="cls-22" points="194.8 424.3 193.3 425.1 195.5 426.4 197 425.6 194.8 424.3"></polygon> <polygon class="cls-22" points="193.6 420.6 192.1 421.5 195.2 423.3 196.7 422.4 193.6 420.6"></polygon> <polygon class="cls-22" points="192.4 416.9 190.9 417.8 194 419.6 195.6 418.7 192.4 416.9"></polygon> <polygon class="cls-22" points="188.5 414.7 187 415.5 190.1 417.3 191.7 416.5 188.5 414.7"></polygon> <polygon class="cls-22" points="203.1 420 201.6 420.9 206.8 423.8 208.4 423 203.1 420"></polygon> <polygon class="cls-22" points="199 417.6 197.5 418.5 200.6 420.3 202.2 419.4 199 417.6"></polygon> <polygon class="cls-22" points="195.1 415.4 193.6 416.3 196.7 418.1 198.3 417.2 195.1 415.4"></polygon> <polygon class="cls-22" points="191.3 413.2 189.8 414.1 192.9 415.9 194.4 415 191.3 413.2"></polygon> </g> <path class="cls-42" d="M204.2,408.6l-6.5,3.1c-2.5,1.1-9.9,7.2-8.4,8.7s5.3,3.3,6.3,3.1,3.6-2.7,4-3.3,5.2-2.3,6.6-4.3S204.2,408.6,204.2,408.6Z"></path> <g> <path class="cls-43" d="M196.1,406.6v23.8a2.4,2.4,0,0,1-3.5,2l-28-16.1a2.3,2.3,0,0,1-1.2-2V390.6a2.2,2.2,0,0,1,3.4-2l28,16A2.4,2.4,0,0,1,196.1,406.6Z"></path> <path class="cls-44" d="M194.9,407.3V431a2.3,2.3,0,0,1-3.5,2l-28-16a2.2,2.2,0,0,1-1.1-2V391.3a2.3,2.3,0,0,1,3.4-2l28,16A2.2,2.2,0,0,1,194.9,407.3Z"></path> </g> <path class="cls-3" d="M180.1,411.9c0,1.4-1.2,1.8-2.7.9s-2.8-2.7-2.8-4.1,1.3-1.8,2.8-.9A5.5,5.5,0,0,1,180.1,411.9Z"></path> </g> <path class="cls-25" d="M230.5,357.1s7.2,1.6,8.9,7.9,4.4,35.2-.5,42.6-37.2,11.3-37.2,11.3a8.7,8.7,0,0,0-1-8.9l27.9-11.7S223.6,359.8,230.5,357.1Z"></path> <path class="cls-30" d="M228.6,398.3,200.7,410a7.7,7.7,0,0,1,1.1,1.9c6.6-2.3,28.6-10,30.8-12.7s-2.8-35.7-3.6-40.7C224.4,366,228.6,398.3,228.6,398.3Z"></path> <path class="cls-37" d="M217.6,324s2.2,4-4.5,9.3c0,0-6.2,3.7-10.1,1.4a2.3,2.3,0,0,1-.9-2s1,1.6,2.3,1.4-1-.7-.8-1.3a4.5,4.5,0,0,0,3.1.8,1.5,1.5,0,0,1-.6-1.5,5.4,5.4,0,0,0,4.8.8,2.6,2.6,0,0,1-1.6-1s3.1.5,4.4-.8-1.7.1-2.1-.6,3.2-.5,4-2.5a2.7,2.7,0,0,1-1.9.3S217.9,326.2,217.6,324Z"></path> <path class="cls-45" d="M217.2,323.2c-2.6-1.8-12.8-1.1-15.9,7.4,0,0,3.6-3.1,4.9-3.9s-.5,1.6-1.5,2.7,3.5-2.6,5.2-3.6,5-2.2,3.2-.6S217.2,323.2,217.2,323.2Z"></path> </g> <g class="cls-46"> <path class="cls-23" d="M185.6,314.3l-33-19c-2-1.2-3.6-.3-3.6,2v23.3a7.5,7.5,0,0,0,3.5,6.1l24.4,14.1,6.8,11.8v-7.8l1.8,1c2,1.1,3.6.2,3.6-2V320.4a7.7,7.7,0,0,0-3.5-6.1"></path> </g> <g class="cls-47"> <g class="cls-46"> <path class="cls-12" d="M173.4,332.5a3.7,3.7,0,0,1-1.7-2.8c0-1,.8-1.4,1.7-.9l8.6,5a3.7,3.7,0,0,1,1.7,2.8c0,1-.8,1.4-1.7.9l-8.6-5m-8.6-12.6a3.6,3.6,0,0,1-1.6-2.8c0-1,.7-1.4,1.6-.9l17.3,10a3.4,3.4,0,0,1,1.6,2.8c0,1-.7,1.4-1.6.9l-17.3-10m-8.7-12.7a3.5,3.5,0,0,1-1.7-2.8c0-1,.8-1.4,1.7-.9l26,15a3.6,3.6,0,0,1,1.6,2.8c0,1.1-.7,1.5-1.6,1l-26-15.1m29.5,7.1-33-19c-2-1.2-3.6-.3-3.6,2v23.3a7.5,7.5,0,0,0,3.5,6.1l24.4,14.1,6.8,11.8v-7.8l1.8,1c2,1.1,3.6.2,3.6-2V320.4a7.7,7.7,0,0,0-3.5-6.1"></path> </g> </g> <g> <g> <path class="cls-13" d="M500,470.9v23.2c-.4,5.4-4.8,10.7-12.8,14.5-10.5,4.8-24.3,5.7-35.5,2.9V470.9Z"></path> <path class="cls-14" d="M433,494.1V470.9h18.7v40.6a36.1,36.1,0,0,1-11.6-5.1C434.9,502.8,432.7,498.4,433,494.1Z"></path> </g> <path class="cls-11" d="M492.9,458.6c5.1,3.6,7.4,8,7.1,12.3H466.5v-19C476.4,451.7,486.3,454,492.9,458.6Z"></path> <g> <path class="cls-10" d="M500,470.9c-.4,5.4-4.8,10.7-12.8,14.5-10.5,4.9-24.3,5.7-35.5,2.9l14.8-17.4Z"></path> <path class="cls-12" d="M433,470.9c.4-5.4,4.7-10.7,12.8-14.5a54,54,0,0,1,20.7-4.5v19l-14.8,17.4a34.1,34.1,0,0,1-11.6-5.1C434.9,479.7,432.7,475.3,433,470.9Z"></path> </g> </g> <ellipse class="cls-7" cx="169.2" cy="495.1" rx="30" ry="15.8"></ellipse> </g> </svg> 