<?xml version="1.0" encoding="utf-8"?>
<!-- Generator: Adobe Illustrator 23.0.1, SVG Export Plug-In . SVG Version: 6.00 Build 0)  -->
<svg version="1.1" id="Layer_1" xmlns="http://www.w3.org/2000/svg" xmlns:xlink="http://www.w3.org/1999/xlink" x="0px" y="0px"
	 viewBox="0 0 500 68.4" style="enable-background:new 0 0 500 68.4;" xml:space="preserve">
<style type="text/css">
	.st0{fill:url(#SVGID_1_);}
	.st1{fill:url(#SVGID_2_);}
</style>
<g>
	<path d="M122.1,526.3"/>
	<path d="M44.8,514.5c0-2,0-4.1,0-6.1c0-0.4,0-0.4,0.4-0.4c2.6,0,5.3,0,7.9,0c0.4,0,0.4,0,0.4,0.4c0,0.5,0,1.1,0,1.6
		c0,0.2-0.1,0.3-0.3,0.3c-1.8,0-3.6,0-5.4,0c-0.3,0-0.4,0.1-0.3,0.3c0,0.7,0,1.4,0,2.1c0,0.2,0.1,0.3,0.3,0.3c0.7,0,1.3,0,2,0
		c1.1,0,2.1,0.2,3,0.7c1,0.6,1.6,1.4,1.7,2.6c0.1,0.8,0,1.5-0.2,2.2c-0.4,1.1-1.2,1.7-2.2,2.1c-0.7,0.3-1.5,0.4-2.3,0.4
		c-1.5,0-3.1,0-4.6,0c-0.3,0-0.4-0.1-0.4-0.4C44.8,518.6,44.8,516.5,44.8,514.5L44.8,514.5z M47.5,517L47.5,517c0,0.5,0,1.1,0,1.6
		c0,0.2,0,0.3,0.2,0.3c0.9,0,1.7,0,2.6-0.1c0.5-0.1,1-0.3,1.3-0.8c0.6-1.1,0.1-2.4-1.2-2.6c-0.9-0.2-1.9-0.1-2.8-0.1
		c-0.1,0-0.1,0.1-0.1,0.2C47.5,515.9,47.5,516.4,47.5,517z"/>
	<path d="M110.5,515.1c0,2,0,3.9,0,5.9c-0.8,0-1.5,0-2.3,0c0-3.2,0-6.3,0-9.5c0.1,0,0.3,0,0.4,0c0.9,0,1.8,0,2.6,0
		c0.2,0,0.3,0.1,0.4,0.3c0.7,1.6,1.4,3.2,2,4.9c0,0.1,0.1,0.2,0.1,0.3c0.2-0.3,0.3-0.6,0.4-0.9c0.6-1.4,1.3-2.8,1.9-4.3
		c0.1-0.2,0.2-0.3,0.4-0.3c1,0,1.9,0,2.9,0c0,3.2,0,6.3,0,9.5c-0.8,0-1.6,0-2.5,0c0-2,0-4,0-6c0,0,0,0-0.1,0c0,0.1-0.1,0.2-0.1,0.2
		c-0.7,1.6-1.4,3.2-2.1,4.8c-0.1,0.2-0.2,0.3-0.4,0.3c-0.4,0-0.7,0-1.1,0c-0.3,0-0.4-0.1-0.5-0.3c-0.6-1.5-1.3-3.1-1.9-4.6
		C110.6,515.2,110.6,515.1,110.5,515.1L110.5,515.1z"/>
	<path d="M69.1,513c0.5-0.7,1.1-1.3,1.9-1.5c2.1-0.5,4.4,0.4,5.1,3c0.3,1.2,0.3,2.5-0.1,3.7c-0.5,1.6-1.5,2.7-3.2,2.9
		c-1.5,0.2-2.7-0.1-3.6-1.4l-0.1-0.1c0,0.1,0,0.2,0,0.3c0,1.3,0,2.7,0,4c0,0.3-0.1,0.3-0.3,0.3c-0.7,0-1.3,0-2,0
		c-0.2,0-0.3-0.1-0.3-0.3c0-4,0-8.1,0-12.1c0-0.2,0.1-0.3,0.3-0.3c0.6,0,1.2,0,1.8,0c0.1,0,0.2,0,0.3,0C69,512,69.1,512.4,69.1,513z
		 M69.1,516.3c0.1,0.4,0.1,0.8,0.2,1.2c0.2,0.9,1.1,1.7,2.2,1.6c1.1,0,1.8-0.6,2.1-1.7c0.2-0.7,0.2-1.5,0-2.2
		c-0.2-0.8-0.7-1.7-2-1.8c-0.8-0.1-1.6,0.2-2.1,1.2C69.2,515.1,69.2,515.7,69.1,516.3z"/>
	<path d="M80.5,517.4c0.1-0.1,0.2-0.2,0.2-0.3c1.1-1.7,2.2-3.4,3.3-5.2c0.2-0.3,0.4-0.4,0.8-0.4c0.6,0,1.3,0,2,0c0,0.1,0,0.2,0,0.4
		c0,2.9,0,5.8,0,8.8c0,0.4,0,0.4-0.4,0.4c-0.6,0-1.3,0-1.9,0c-0.2,0-0.3-0.1-0.3-0.3c0-1.8,0-3.5,0-5.3c0-0.1,0-0.1,0-0.3
		c-0.1,0.1-0.2,0.2-0.2,0.3c-1.1,1.8-2.2,3.5-3.3,5.3c-0.1,0.2-0.3,0.3-0.5,0.3c-0.6,0-1.3,0-1.9,0c-0.2,0-0.3-0.1-0.3-0.3
		c0-3,0-6,0-9c0-0.2,0.1-0.3,0.3-0.2c0.6,0,1.3,0,1.9,0c0.4,0,0.4,0,0.4,0.4c0,1.7,0,3.4,0,5.1C80.5,517.1,80.5,517.2,80.5,517.4z"
		/>
	<path d="M64.5,518.4c0,0.7,0,1.3,0,1.9c0,0.1-0.1,0.2-0.2,0.3c-0.7,0.4-1.4,0.6-2.1,0.6c-1.2,0.1-2.3,0.1-3.5-0.3
		c-1.6-0.5-2.5-1.6-2.8-3.2c-0.2-1.1-0.2-2.2,0.2-3.2c0.6-1.7,1.8-2.7,3.5-3c1-0.2,2.1-0.1,3.1,0.3c1.4,0.6,2.1,1.7,2.3,3.2
		c0.1,0.6,0,1.2,0,1.8c0,0.2-0.1,0.3-0.4,0.3c-1.9,0-3.8,0-5.7,0c-0.4,0-0.4,0-0.3,0.3c0.3,1.2,1,1.7,2.2,1.8
		C62.1,519.3,63.2,519.1,64.5,518.4C64.3,518.4,64.4,518.4,64.5,518.4z M58.5,515.2c0.1,0,0.2,0,0.3,0c1.1,0,2.2,0,3.2,0
		c0.1,0,0.3,0.1,0.3-0.2c0-0.7-0.3-1.5-1.2-1.7C59.8,513,58.8,513.8,58.5,515.2z"/>
	<path d="M126,521.2c-1.8,0-3.2-0.6-4.1-2.1c-0.7-1.1-0.8-2.3-0.7-3.5c0.1-0.9,0.3-1.7,0.8-2.4c1-1.3,2.3-1.9,3.9-1.9
		c1.7,0,3.2,0.6,4.2,2.1c0.7,1.1,0.8,2.2,0.7,3.5c-0.1,0.9-0.4,1.8-0.9,2.5C128.8,520.7,127.4,521.2,126,521.2z M128.2,516.3
		c-0.1-0.4-0.1-0.9-0.2-1.3c-0.2-1-1-1.5-2-1.6c-0.9,0-1.7,0.6-2,1.5s-0.3,1.9,0,2.8c0.3,0.9,1.1,1.5,2,1.5c1,0,1.8-0.6,2-1.5
		C128,517.2,128.1,516.7,128.2,516.3z"/>
	<path d="M103.5,515.3c0-0.3,0-0.5,0-0.8c-0.1-0.6-0.5-1-1.1-1.1c-1.2-0.2-2.3,0.1-3.4,0.5c-0.2,0.1-0.3,0.1-0.5,0.2
		c0-0.1,0-0.2,0-0.2c0-0.5,0-1,0-1.6c0-0.1,0.1-0.3,0.2-0.3c1.8-0.8,3.6-1,5.5-0.5c1.3,0.4,2,1.4,2,2.8c0,1.3,0,2.7,0,4
		c0,0.9,0,1.7,0,2.6c-0.7,0-1.5,0-2.3,0c-0.1-0.4-0.1-0.9-0.2-1.3c0,0,0,0-0.1,0c-0.9,1.8-3.4,1.8-4.6,1c-0.7-0.4-1-1.1-1.1-1.9
		c-0.1-1.9,1-2.9,2.7-3.3c0.8-0.2,1.7-0.1,2.6-0.2C103.2,515.3,103.3,515.3,103.5,515.3z M103.5,516.8c-0.5,0-1,0-1.4,0
		c-0.3,0-0.7,0.1-1,0.2c-0.5,0.2-0.8,0.7-0.7,1.3c0,0.5,0.3,0.9,0.8,0.9c0.3,0,0.6,0.1,0.9,0C103,519.1,103.7,517.9,103.5,516.8z"/>
	<path d="M147.6,515.3c0-0.3,0-0.5,0-0.8c-0.1-0.7-0.4-1-1.1-1.1c-1.3-0.2-2.5,0.1-3.6,0.6c-0.1,0-0.2,0.1-0.3,0.1
		c0-0.7,0-1.3,0-1.9c0-0.1,0.1-0.2,0.2-0.2c1.2-0.5,2.4-0.7,3.6-0.7c0.7,0,1.3,0.1,1.9,0.3c1.1,0.4,1.8,1.3,1.8,2.5
		c0.1,1.2,0,2.3,0,3.5c0,1.1,0,2.2,0,3.3H150c-0.7,0-1.3,0-2,0c-0.2,0-0.3,0-0.3-0.2c0-0.4-0.1-0.7-0.1-1.1
		c-0.1,0.1-0.1,0.1-0.1,0.2c-0.6,0.9-1.4,1.4-2.5,1.4c-0.5,0-1,0-1.4-0.2c-1.6-0.5-2.1-2.1-1.7-3.5c0.3-0.9,1-1.5,1.9-1.8
		c0.7-0.3,1.5-0.4,2.2-0.4C146.5,515.3,147,515.3,147.6,515.3z M147.5,516.8c-0.3,0-0.6,0-0.9,0c-0.2,0-0.5,0-0.7,0
		c-0.3,0-0.6,0.1-0.8,0.2c-0.5,0.2-0.7,0.6-0.7,1.2c0,0.5,0.2,0.9,0.7,1c0.6,0.2,1.2,0.2,1.7-0.2
		C147.4,518.5,147.6,517.7,147.5,516.8z"/>
	<path d="M141,511.6c-1.1,1.5-2.2,3-3.3,4.5c1.2,1.6,2.4,3.3,3.6,5c-0.1,0-0.2,0-0.3,0c-0.8,0-1.6,0-2.4,0c-0.2,0-0.3-0.1-0.4-0.2
		c-0.7-1-1.5-2-2.1-3.1c-0.2-0.3-0.4-0.5-0.8-0.4c-0.1,0-0.2,0-0.3,0c0,1.2,0,2.4,0,3.7c-0.9,0-1.7,0-2.5,0c0-3.1,0-6.3,0-9.4
		c0.8,0,1.7,0,2.5,0c0,1.2,0,2.5,0,3.7c0.3,0,0.5,0,0.8,0c0.1,0,0.2-0.1,0.2-0.2c0.8-1.1,1.6-2.2,2.4-3.3c0.1-0.2,0.2-0.2,0.4-0.2
		c0.6,0,1.3,0,1.9,0C140.8,511.5,140.9,511.5,141,511.6z"/>
	<path d="M96.5,514.1c-0.6-0.2-1.2-0.5-1.8-0.6c-0.6-0.1-1.2-0.1-1.8,0c-1.1,0.2-1.7,0.8-1.9,2c-0.1,0.7-0.1,1.3,0.1,2
		c0.3,1,1.1,1.6,2.1,1.7c1.1,0.1,2.1-0.1,3.1-0.6h0.1c0,0.1,0,0.2,0,0.3c0,0.4,0,0.8,0,1.2s-0.2,0.6-0.5,0.8
		c-1.1,0.5-2.2,0.6-3.4,0.4c-0.5,0-0.9-0.2-1.3-0.3c-1.6-0.6-2.5-1.8-2.8-3.4c-0.2-0.9-0.2-1.8,0.1-2.7c0.5-1.8,1.6-2.8,3.4-3.2
		c1.4-0.3,2.7-0.3,4.1,0.3c0.4,0.2,0.6,0.4,0.5,0.8C96.5,513.1,96.5,513.6,96.5,514.1z"/>
	<path d="M154.1,521c0-2.5,0-8.6,0-11.1c-0.9,0-1.8,0-2.7,0c0-0.7,0-1.3,0-2c2.7,0,5.4,0,8.1,0c0,0.6,0,1.3,0,2c-0.9,0-1.8,0-2.8,0
		c0,0.2,0,0.3,0,0.4c0,2.2,0,8.2,0,10.4c0,0.3-0.1,0.4-0.4,0.4C155.5,521,154.8,521,154.1,521z"/>
	<path d="M158.9,519.5c0-0.9,0.7-1.6,1.7-1.6c0.9,0,1.7,0.7,1.7,1.6c0,0.9-0.8,1.7-1.7,1.7C159.6,521.2,158.9,520.4,158.9,519.5z"/>
</g>
<linearGradient id="SVGID_1_" gradientUnits="userSpaceOnUse" x1="22" y1="1250.5" x2="39.8" y2="1250.5" gradientTransform="matrix(1 0 0 1 0 -736)">
	<stop  offset="0" style="stop-color:#00AAF1"/>
	<stop  offset="1" style="stop-color:#1566F3"/>
</linearGradient>
<circle class="st0" cx="30.9" cy="514.5" r="8.9"/>
<g>
	<path d="M362.4,75.8"/>
	<path d="M83.3,33c0-7.4,0-14.8,0-22.2c0-1.6,0-1.6,1.5-1.6c9.6,0,19.1,0,28.7,0c1.3,0,1.3,0,1.4,1.4c0,1.9,0,3.8,0,5.8
		c0,0.8-0.3,1-1.1,1c-6.5,0-13,0-19.5,0c-1,0-1.3,0.3-1.3,1.3c0.1,2.6,0.1,5.1,0,7.7c0,0.9,0.2,1.2,1.1,1.2c2.4,0,4.8,0,7.2,0
		c3.8,0.1,7.5,0.7,10.9,2.5c3.7,2,5.6,5.2,6.1,9.4c0.3,2.8,0.1,5.5-0.9,8.1c-1.4,3.9-4.2,6.3-8,7.7c-2.7,1-5.5,1.4-8.3,1.4
		c-5.5,0-11,0-16.5,0c-1,0-1.3-0.3-1.3-1.3C83.3,47.9,83.3,40.5,83.3,33L83.3,33z M93,42L93,42c0,1.9,0,3.8,0,5.7
		c0,0.5,0.1,1,0.8,0.9c3.1-0.1,6.3-0.1,9.4-0.4c1.9-0.2,3.8-0.9,4.8-2.8c2.2-4.1,0.2-8.7-4.3-9.4c-3.3-0.6-6.7-0.4-10.1-0.5
		c-0.2,0-0.5,0.5-0.5,0.8C93,38.2,93,40.1,93,42z"/>
	<path d="M320.4,35.1c0,7.1,0,14.3,0,21.4c-2.8,0-5.4,0-8.2,0c0-11.4,0-22.7,0-34.2c0.5,0,0.9,0,1.4,0c3.2,0,6.4,0,9.6,0
		c0.8,0,1.1,0.2,1.4,0.9c2.4,5.9,4.9,11.7,7.4,17.6c0.1,0.3,0.3,0.6,0.5,1.1c0.5-1.2,1-2.2,1.5-3.3c2.3-5.1,4.6-10.3,6.9-15.4
		c0.3-0.7,0.6-0.9,1.4-0.9c3.5,0,7,0,10.6,0c0,11.4,0,22.7,0,34.1c-3,0-5.9,0-9,0c0-7.3,0-14.5,0-21.8c-0.1,0-0.1,0-0.2,0
		c-0.1,0.3-0.3,0.6-0.4,0.9c-2.6,5.7-5.2,11.5-7.7,17.2c-0.3,0.8-0.8,1.1-1.6,1c-1.3-0.1-2.7-0.1-4,0c-1,0.1-1.5-0.3-1.9-1.2
		c-2.3-5.6-4.7-11.1-7-16.6c-0.1-0.3-0.3-0.6-0.4-0.9C320.5,35.1,320.4,35.1,320.4,35.1z"/>
	<path d="M171.2,27.5c1.8-2.7,4-4.6,7-5.3c7.8-1.9,16,1.4,18.4,10.9c1.2,4.5,1.2,9-0.2,13.5c-1.8,5.8-5.4,9.6-11.6,10.6
		c-5.3,0.8-9.8-0.5-13-5c-0.1-0.1-0.2-0.2-0.4-0.5c0,0.5,0,0.8,0,1.1c0,4.8,0,9.6,0,14.4c0,1-0.3,1.2-1.2,1.2
		c-2.4-0.1-4.7-0.1-7.1,0c-0.9,0-1.1-0.3-1.1-1.1c0-14.6,0-29.2,0-43.8c0-0.8,0.2-1.2,1.1-1.1c2.2,0.1,4.5,0,6.7,0
		c0.3,0,0.6,0,1,0.1C170.8,24.1,171,25.7,171.2,27.5z M171.1,39.4c0.2,1.5,0.3,3,0.7,4.4c0.8,3.4,3.9,6,7.9,5.9
		c3.9-0.1,6.6-2.2,7.6-6c0.7-2.7,0.7-5.4,0.1-8.1c-0.6-3-2.5-6.2-7.3-6.5c-2.9-0.2-5.9,0.9-7.7,4.3
		C171.4,35.3,171.2,37.3,171.1,39.4z"/>
	<path d="M212.3,43.5c0.4-0.5,0.6-0.8,0.7-1c4-6.2,8-12.4,11.9-18.6c0.7-1.2,1.5-1.6,2.9-1.5c2.3,0.1,4.6,0,7.1,0
		c0,0.5,0.1,0.9,0.1,1.3c0,10.5,0,21.1,0,31.6c0,1.3,0,1.3-1.4,1.3c-2.3,0-4.5,0-6.8,0c-0.9,0-1.2-0.2-1.2-1.2c0-6.3,0-12.7,0-19
		c0-0.2,0-0.5,0-1.1c-0.4,0.5-0.6,0.8-0.7,1.1c-4,6.3-8,12.7-12,19c-0.5,0.8-1,1.1-2,1.1c-2.3-0.1-4.7,0-7,0c-0.7,0-1-0.2-1-0.9
		c0-10.8,0-21.6,0-32.5c0-0.8,0.3-0.9,1-0.9c2.3,0,4.6,0,6.9,0c1.4,0,1.4,0,1.4,1.4c0,6.1,0,12.2,0,18.3
		C212.3,42.4,212.3,42.8,212.3,43.5z"/>
	<path d="M154.5,47.1c0,2.4,0,4.6,0,6.8c0,0.3-0.5,0.7-0.8,0.9c-2.4,1.4-5,2.1-7.7,2.3c-4.2,0.4-8.5,0.3-12.6-1.1
		c-5.7-1.9-9-5.9-10.2-11.6c-0.8-3.9-0.8-7.9,0.6-11.7c2.1-6.1,6.5-9.6,12.7-10.7c3.8-0.7,7.5-0.5,11.1,1c5.1,2.1,7.6,6.2,8.2,11.5
		c0.2,2.1,0,4.2,0,6.3c0,0.8-0.3,1.2-1.3,1.2c-6.9,0-13.8,0-20.7,0c-1.3,0-1.3,0.1-1,1.3c1,4.3,3.7,6,8,6.4
		c4.5,0.4,8.8-0.3,12.9-2.4C153.8,47.3,154,47.2,154.5,47.1z M132.7,35.5c0.4,0,0.8,0,1.1,0c3.9,0,7.8,0,11.7,0c0.4,0,1,0.2,1-0.6
		c0-2.6-1-5.3-4.2-6.1C137.6,27.8,133.7,30.5,132.7,35.5z"/>
	<path d="M376.5,57.3c-6.5-0.1-11.6-2.1-14.9-7.4c-2.5-3.8-3-8.2-2.6-12.6c0.3-3.1,1.1-6,3-8.6c3.4-4.8,8.3-6.8,14-6.8
		c6.2,0,11.5,2,15,7.4c2.4,3.8,3,8.1,2.6,12.5c-0.3,3.4-1.3,6.5-3.4,9.2C386.5,55.5,381.7,57.2,376.5,57.3z M384.3,39.5
		c-0.3-1.6-0.4-3.2-0.8-4.8c-0.9-3.4-3.7-5.6-7.3-5.6c-3.3,0-6.2,2.1-7.2,5.4s-1,6.7,0,10c1,3.2,3.8,5.3,7.1,5.3
		c3.5,0,6.4-2,7.3-5.4C383.8,42.9,384,41.2,384.3,39.5z"/>
	<path d="M295.3,35.9c0-1,0.1-1.9,0-2.8c-0.3-2.3-1.6-3.5-4.1-3.8c-4.3-0.6-8.4,0.3-12.4,2c-0.6,0.2-1.1,0.5-1.8,0.7
		c-0.1-0.3-0.1-0.6-0.1-0.8c0-1.9,0-3.8,0-5.6c0-0.4,0.3-0.9,0.6-1c6.4-2.8,13.1-3.8,19.9-1.7c4.8,1.5,7.3,5,7.3,10.1
		c0,4.8,0,9.6,0,14.4c0,3.1,0,6.1,0,9.3c-2.6,0-5.3,0-8.3,0c-0.2-1.5-0.4-3.1-0.6-4.8c-0.1,0.1-0.2,0.1-0.2,0.1
		c-3.4,6.4-12.2,6.5-16.8,3.6c-2.5-1.6-3.7-4-4-7c-0.5-6.8,3.6-10.6,9.7-11.9c3-0.6,6.2-0.5,9.3-0.7
		C294.2,35.9,294.7,35.9,295.3,35.9z M295.2,41.4c-1.8,0-3.5-0.1-5.2,0c-1.2,0.1-2.4,0.4-3.6,0.8c-1.9,0.7-2.8,2.4-2.6,4.8
		c0.1,1.8,1.2,3.1,3,3.4c1,0.2,2.1,0.2,3.1-0.1C293.6,49.5,295.9,45.5,295.2,41.4z"/>
	<path d="M454.4,36c-0.1-1,0-1.9-0.1-2.7c-0.4-2.5-1.5-3.6-4.1-4c-4.6-0.6-8.9,0.3-13.1,2.2c-0.4,0.2-0.7,0.3-1.2,0.5
		c0-2.4,0-4.6,0-6.9c0-0.3,0.5-0.6,0.8-0.8c4.2-1.8,8.5-2.7,13.1-2.6c2.4,0.1,4.8,0.3,7,1.2c4.1,1.6,6.4,4.6,6.6,9
		c0.2,4.2,0.1,8.4,0.2,12.6c0,3.9,0,7.9,0,11.9c0,0-0.2,0.1-0.4,0.1c-2.4,0-4.7,0-7.1,0c-0.6,0-0.9-0.2-1-0.8
		c-0.1-1.3-0.3-2.6-0.5-4.1c-0.2,0.3-0.3,0.4-0.4,0.6c-2.1,3.3-5.1,4.9-8.9,4.9c-1.7,0-3.4-0.1-5-0.6c-5.9-1.8-7.6-7.6-6.1-12.6
		c1-3.4,3.6-5.3,6.7-6.6c2.6-1,5.3-1.4,8-1.4C450.6,36,452.4,36,454.4,36z M454.3,41.4c-1.2,0-2.3,0-3.4,0c-0.9,0-1.8,0-2.7,0.1
		c-1,0.2-2,0.4-3,0.8c-1.7,0.7-2.7,2.3-2.6,4.3c0.1,1.7,0.7,3.1,2.4,3.7c2.1,0.7,4.2,0.6,6-0.8C453.7,47.4,454.4,44.6,454.3,41.4z"
		/>
	<path d="M430.8,22.5c-4.1,5.5-8,10.8-11.9,16.2c4.3,5.9,8.5,11.8,12.9,17.9c-0.5,0-0.8,0.1-1.1,0.1c-2.9,0-5.9,0-8.8,0
		c-0.7,0-1.1-0.2-1.5-0.8c-2.6-3.7-5.2-7.4-7.8-11.1c-0.8-1.1-1.6-1.7-2.9-1.5c-0.3,0-0.6,0-1,0.1c0,4.4,0,8.8,0,13.2
		c-3.1,0-6.1,0-9.1,0c0-11.3,0-22.7,0-34.1c3,0,6,0,9.1,0c0,4.5,0,8.9,0,13.5c1,0,1.9,0.1,2.8,0c0.3,0,0.6-0.5,0.9-0.8
		c2.9-4,5.9-8,8.8-12c0.4-0.6,0.9-0.8,1.6-0.8c2.3,0,4.7,0,7,0C430,22.4,430.3,22.4,430.8,22.5z"/>
	<path d="M270,31.5c-2.2-0.7-4.2-1.7-6.3-2.1c-2.1-0.4-4.3-0.4-6.4-0.1c-3.9,0.5-6.1,3.1-6.8,7.1c-0.4,2.4-0.3,4.8,0.3,7.1
		c1,3.7,3.8,5.9,7.7,6.1c3.9,0.2,7.6-0.3,11.1-2.3c0.1-0.1,0.2-0.1,0.5-0.2c0,0.4,0.1,0.8,0.1,1.2c0,1.4-0.1,2.9,0,4.3
		c0.2,1.5-0.6,2.2-1.8,2.8c-3.9,1.9-8.1,2-12.2,1.6c-1.6-0.2-3.3-0.6-4.9-1.1c-5.7-2.1-8.9-6.3-10.1-12.2c-0.6-3.2-0.6-6.5,0.3-9.7
		c1.7-6.4,5.8-10.3,12.1-11.7c5-1.1,9.9-1,14.7,1c1.4,0.6,2,1.3,1.9,2.9C269.9,28.1,270,29.8,270,31.5z"/>
	<path d="M472.3,56.7c0-9,0-31.1,0-40.2c-3.3,0-6.6,0-9.9,0c0-2.5,0-4.8,0-7.2c9.7,0,19.4,0,29.2,0c0,2.3,0,4.6,0,7.1
		c-3.3,0-6.6,0-10,0c0,0.6,0,1,0,1.4c0,8.1,0,29.4,0.1,37.6c0,1-0.2,1.4-1.3,1.3C477.7,56.6,475.1,56.7,472.3,56.7z"/>
	<path d="M486.1,51.2c0-3.3,2.7-5.9,6.1-5.9s6.1,2.6,6.2,5.8c0,3.3-2.8,6.1-6.2,6.1C488.8,57.2,486.1,54.6,486.1,51.2z"/>
</g>
<linearGradient id="SVGID_2_" gradientUnits="userSpaceOnUse" x1="0.9" y1="72.8898" x2="65.2027" y2="72.8898" gradientTransform="matrix(1 0 0 -1 0 105.8898)">
	<stop  offset="0" style="stop-color:#00AAF1"/>
	<stop  offset="1" style="stop-color:#1566F3"/>
</linearGradient>
<circle class="st1" cx="33.1" cy="33" r="32.2"/>
</svg>
